<svg width="166" height="165" viewBox="0 0 166 165" fill="none" xmlns="http://www.w3.org/2000/svg">
<circle cx="83.0297" cy="82.5" r="82.5" fill="#E9F5FF"/>
<circle cx="83.5724" cy="81.9573" r="68.9309" fill="#93CBFF"/>
<circle cx="83.5725" cy="81.9574" r="50.477" fill="#2798FF"/>
<path d="M68.3141 89.8682C68.3141 91.4736 67.9391 92.8271 67.1891 93.9287C66.4391 95.0186 65.4078 95.8447 64.0953 96.4072C62.7945 96.958 61.318 97.2334 59.6656 97.2334C58.0133 97.2334 56.5309 96.958 55.2184 96.4072C53.9059 95.8447 52.8687 95.0186 52.107 93.9287C51.3453 92.8271 50.9644 91.4736 50.9644 89.8682C50.9644 88.79 51.1812 87.8174 51.6148 86.9502C52.0484 86.0713 52.6519 85.3213 53.4254 84.7002C54.2105 84.0674 55.1305 83.5869 56.1852 83.2588C57.2398 82.9189 58.3883 82.749 59.6305 82.749C61.2945 82.749 62.7828 83.042 64.0953 83.6279C65.4078 84.2139 66.4391 85.04 67.1891 86.1064C67.9391 87.1729 68.3141 88.4268 68.3141 89.8682ZM63.2164 89.5342C63.2164 88.749 63.0641 88.0752 62.7594 87.5127C62.4664 86.9385 62.0504 86.499 61.5113 86.1943C60.9723 85.8896 60.3453 85.7373 59.6305 85.7373C58.9156 85.7373 58.2887 85.8896 57.7496 86.1943C57.2105 86.499 56.7887 86.9385 56.484 87.5127C56.191 88.0752 56.0445 88.749 56.0445 89.5342C56.0445 90.3076 56.191 90.9756 56.484 91.5381C56.7887 92.1006 57.2105 92.5342 57.7496 92.8389C58.3004 93.1318 58.9391 93.2783 59.6656 93.2783C60.3922 93.2783 61.0191 93.1318 61.5465 92.8389C62.0855 92.5342 62.4957 92.1006 62.7769 91.5381C63.0699 90.9756 63.2164 90.3076 63.2164 89.5342ZM67.7691 78.0732C67.7691 79.374 67.4234 80.5283 66.732 81.5361C66.0406 82.5322 65.0797 83.3115 63.8492 83.874C62.6305 84.4365 61.2359 84.7178 59.6656 84.7178C58.0836 84.7178 56.6773 84.4365 55.4469 83.874C54.2164 83.3115 53.2555 82.5322 52.5641 81.5361C51.8727 80.5283 51.5269 79.374 51.5269 78.0732C51.5269 76.5264 51.8727 75.2256 52.5641 74.1709C53.2672 73.1045 54.2281 72.2959 55.4469 71.7451C56.6773 71.1943 58.0719 70.9189 59.6305 70.9189C61.2125 70.9189 62.6129 71.1943 63.8316 71.7451C65.0621 72.2959 66.023 73.1045 66.7144 74.1709C67.4176 75.2256 67.7691 76.5264 67.7691 78.0732ZM62.7066 78.3018C62.7066 77.6104 62.5836 77.0127 62.3375 76.5088C62.0914 75.9932 61.7398 75.5947 61.2828 75.3135C60.8375 75.0322 60.2867 74.8916 59.6305 74.8916C58.9977 74.8916 58.4527 75.0264 57.9957 75.2959C57.5504 75.5654 57.2047 75.958 56.9586 76.4736C56.7242 76.9775 56.607 77.5869 56.607 78.3018C56.607 78.9932 56.7242 79.6025 56.9586 80.1299C57.2047 80.6455 57.5562 81.0498 58.0133 81.3428C58.4703 81.6357 59.0211 81.7822 59.6656 81.7822C60.3102 81.7822 60.8551 81.6357 61.3004 81.3428C61.7574 81.0498 62.1031 80.6455 62.3375 80.1299C62.5836 79.6025 62.7066 78.9932 62.7066 78.3018ZM88.9684 81.835V86.2646C88.9684 88.1865 88.7633 89.8447 88.3531 91.2393C87.943 92.6221 87.3512 93.7588 86.5777 94.6494C85.816 95.5283 84.9078 96.1787 83.8531 96.6006C82.7984 97.0225 81.6266 97.2334 80.3375 97.2334C79.3062 97.2334 78.3453 97.1045 77.4547 96.8467C76.5641 96.5771 75.7613 96.1611 75.0465 95.5986C74.3434 95.0361 73.734 94.3271 73.2184 93.4717C72.7144 92.6045 72.3277 91.5732 72.0582 90.3779C71.7887 89.1826 71.6539 87.8115 71.6539 86.2646V81.835C71.6539 79.9131 71.859 78.2666 72.2691 76.8955C72.691 75.5127 73.2828 74.3818 74.0445 73.5029C74.818 72.624 75.732 71.9795 76.7867 71.5693C77.8414 71.1475 79.0133 70.9365 80.3023 70.9365C81.3336 70.9365 82.2887 71.0713 83.1676 71.3408C84.0582 71.5986 84.8609 72.0029 85.5758 72.5537C86.2906 73.1045 86.9 73.8135 87.4039 74.6807C87.9078 75.5361 88.2945 76.5615 88.5641 77.7568C88.8336 78.9404 88.9684 80.2998 88.9684 81.835ZM83.8883 86.9326V81.1494C83.8883 80.2236 83.8355 79.415 83.7301 78.7236C83.6363 78.0322 83.4898 77.4463 83.2906 76.9658C83.0914 76.4736 82.8453 76.0752 82.5523 75.7705C82.2594 75.4658 81.9254 75.2432 81.5504 75.1025C81.1754 74.9619 80.7594 74.8916 80.3023 74.8916C79.7281 74.8916 79.2184 75.0029 78.773 75.2256C78.3394 75.4482 77.9703 75.8057 77.6656 76.2979C77.3609 76.7783 77.1266 77.4229 76.9625 78.2314C76.8102 79.0283 76.734 80.001 76.734 81.1494V86.9326C76.734 87.8584 76.7809 88.6729 76.8746 89.376C76.9801 90.0791 77.1324 90.6826 77.3316 91.1865C77.5426 91.6787 77.7887 92.083 78.0699 92.3994C78.3629 92.7041 78.6969 92.9268 79.0719 93.0674C79.4586 93.208 79.8805 93.2783 80.3375 93.2783C80.9 93.2783 81.398 93.167 81.8316 92.9443C82.2769 92.71 82.6519 92.3467 82.9566 91.8545C83.273 91.3506 83.5074 90.6943 83.6598 89.8857C83.8121 89.0771 83.8883 88.0928 83.8883 86.9326ZM91.5934 86.1494V85.3975C91.5934 84.8571 91.7105 84.3656 91.9449 83.9229C92.1793 83.4801 92.5243 83.1253 92.9801 82.8584C93.4358 82.5915 93.9957 82.458 94.6598 82.458C95.3434 82.458 95.913 82.5915 96.3687 82.8584C96.831 83.1253 97.176 83.4801 97.4039 83.9229C97.6383 84.3656 97.7555 84.8571 97.7555 85.3975V86.1494C97.7555 86.6768 97.6383 87.1618 97.4039 87.6045C97.176 88.0472 96.8342 88.402 96.3785 88.6689C95.9228 88.9359 95.3596 89.0693 94.6891 89.0693C94.012 89.0693 93.4423 88.9359 92.9801 88.6689C92.5243 88.402 92.1793 88.0472 91.9449 87.6045C91.7105 87.1618 91.5934 86.6768 91.5934 86.1494ZM93.4586 85.3975V86.1494C93.4586 86.3773 93.5009 86.5954 93.5855 86.8037C93.6767 87.0055 93.8134 87.1715 93.9957 87.3018C94.1845 87.4255 94.4124 87.4873 94.6793 87.4873C94.9592 87.4873 95.1871 87.4255 95.3629 87.3018C95.5387 87.1715 95.6689 87.0055 95.7535 86.8037C95.8381 86.5954 95.8805 86.3773 95.8805 86.1494V85.3975C95.8805 85.1566 95.8349 84.9352 95.7437 84.7334C95.6591 84.5251 95.5256 84.359 95.3434 84.2354C95.1676 84.1051 94.9397 84.04 94.6598 84.04C94.3993 84.04 94.178 84.1051 93.9957 84.2354C93.8134 84.359 93.6767 84.5251 93.5855 84.7334C93.5009 84.9352 93.4586 85.1566 93.4586 85.3975ZM98.3902 94.1475V93.3955C98.3902 92.8617 98.5074 92.3734 98.7418 91.9307C98.9827 91.488 99.331 91.1331 99.7867 90.8662C100.249 90.5993 100.815 90.4658 101.486 90.4658C102.163 90.4658 102.729 90.5993 103.185 90.8662C103.641 91.1331 103.986 91.488 104.22 91.9307C104.455 92.3734 104.572 92.8617 104.572 93.3955V94.1475C104.572 94.6813 104.455 95.1696 104.22 95.6123C103.992 96.055 103.651 96.4098 103.195 96.6768C102.739 96.9437 102.176 97.0771 101.505 97.0771C100.828 97.0771 100.259 96.9437 99.7965 96.6768C99.3342 96.4098 98.9827 96.055 98.7418 95.6123C98.5074 95.1696 98.3902 94.6813 98.3902 94.1475ZM100.265 93.3955V94.1475C100.265 94.3818 100.317 94.6032 100.421 94.8115C100.526 95.0199 100.669 95.1859 100.851 95.3096C101.04 95.4333 101.258 95.4951 101.505 95.4951C101.818 95.4951 102.062 95.4333 102.238 95.3096C102.414 95.1859 102.534 95.0199 102.599 94.8115C102.671 94.6032 102.707 94.3818 102.707 94.1475V93.3955C102.707 93.1611 102.661 92.943 102.57 92.7412C102.479 92.5329 102.342 92.3669 102.16 92.2432C101.984 92.113 101.759 92.0479 101.486 92.0479C101.212 92.0479 100.985 92.113 100.802 92.2432C100.627 92.3669 100.493 92.5329 100.402 92.7412C100.311 92.943 100.265 93.1611 100.265 93.3955ZM102.179 84.6943L95.2359 95.8076L93.8687 95.085L100.812 83.9717L102.179 84.6943Z" fill="white"/>
<path d="M72.8708 50.6731V57.7825H71.4109V50.6731H72.8708ZM75.0583 50.6731V51.8206H69.2576V50.6731H75.0583ZM74.7312 55.1946V55.092C74.7312 54.7047 74.7865 54.3482 74.8972 54.0227C75.0079 53.6939 75.169 53.4091 75.3806 53.1682C75.5922 52.9273 75.8526 52.7402 76.1619 52.6067C76.4711 52.47 76.8259 52.4016 77.2263 52.4016C77.6267 52.4016 77.9832 52.47 78.2957 52.6067C78.6082 52.7402 78.8702 52.9273 79.0818 53.1682C79.2966 53.4091 79.4594 53.6939 79.5701 54.0227C79.6807 54.3482 79.7361 54.7047 79.7361 55.092V55.1946C79.7361 55.5787 79.6807 55.9351 79.5701 56.2639C79.4594 56.5894 79.2966 56.8743 79.0818 57.1184C78.8702 57.3593 78.6098 57.5465 78.3005 57.6799C77.9913 57.8134 77.6365 57.8801 77.2361 57.8801C76.8357 57.8801 76.4792 57.8134 76.1667 57.6799C75.8575 57.5465 75.5955 57.3593 75.3806 57.1184C75.169 56.8743 75.0079 56.5894 74.8972 56.2639C74.7865 55.9351 74.7312 55.5787 74.7312 55.1946ZM76.1375 55.092V55.1946C76.1375 55.4159 76.157 55.6226 76.196 55.8147C76.2351 56.0068 76.297 56.176 76.3816 56.3225C76.4695 56.4657 76.5834 56.578 76.7234 56.6594C76.8634 56.7408 77.0343 56.7815 77.2361 56.7815C77.4314 56.7815 77.599 56.7408 77.739 56.6594C77.879 56.578 77.9913 56.4657 78.0759 56.3225C78.1606 56.176 78.2224 56.0068 78.2615 55.8147C78.3038 55.6226 78.325 55.4159 78.325 55.1946V55.092C78.325 54.8772 78.3038 54.6754 78.2615 54.4866C78.2224 54.2945 78.1589 54.1252 78.071 53.9788C77.9864 53.829 77.8741 53.7118 77.7341 53.6272C77.5942 53.5426 77.4249 53.5002 77.2263 53.5002C77.0278 53.5002 76.8585 53.5426 76.7185 53.6272C76.5818 53.7118 76.4695 53.829 76.3816 53.9788C76.297 54.1252 76.2351 54.2945 76.196 54.4866C76.157 54.6754 76.1375 54.8772 76.1375 55.092ZM83.1882 52.4993V53.4954H80.1121V52.4993H83.1882ZM80.8738 51.1956H82.28V56.1907C82.28 56.3437 82.2996 56.4609 82.3386 56.5422C82.3809 56.6236 82.4428 56.6806 82.5242 56.7131C82.6056 56.7424 82.7081 56.7571 82.8318 56.7571C82.9197 56.7571 82.9978 56.7538 83.0662 56.7473C83.1378 56.7375 83.198 56.7278 83.2468 56.718L83.2517 57.7532C83.1313 57.7922 83.0011 57.8232 82.8611 57.8459C82.7211 57.8687 82.5665 57.8801 82.3972 57.8801C82.088 57.8801 81.8178 57.8297 81.5867 57.7288C81.3588 57.6246 81.183 57.4586 81.0593 57.2307C80.9356 57.0028 80.8738 56.7034 80.8738 56.3323V51.1956ZM86.8406 56.5911V54.2375C86.8406 54.0683 86.8129 53.9234 86.7576 53.803C86.7022 53.6793 86.616 53.5833 86.4988 53.5149C86.3848 53.4465 86.2367 53.4124 86.0544 53.4124C85.8982 53.4124 85.7631 53.44 85.6492 53.4954C85.5352 53.5474 85.4473 53.6239 85.3855 53.7249C85.3236 53.8225 85.2927 53.9381 85.2927 54.0715H83.8865C83.8865 53.8469 83.9386 53.6337 84.0427 53.4319C84.1469 53.2301 84.2983 53.0527 84.4968 52.8997C84.6954 52.7434 84.9314 52.6213 85.2048 52.5334C85.4815 52.4456 85.7908 52.4016 86.1326 52.4016C86.5427 52.4016 86.9073 52.47 87.2263 52.6067C87.5453 52.7434 87.796 52.9485 87.9783 53.2219C88.1638 53.4954 88.2566 53.8372 88.2566 54.2473V56.5081C88.2566 56.7978 88.2745 57.0354 88.3103 57.2209C88.3461 57.4032 88.3982 57.5627 88.4666 57.6995V57.7825H87.0457C86.9773 57.6392 86.9252 57.4602 86.8894 57.2454C86.8569 57.0273 86.8406 56.8092 86.8406 56.5911ZM87.0261 54.5647L87.0359 55.3606H86.2498C86.0642 55.3606 85.9031 55.3818 85.7664 55.4241C85.6296 55.4664 85.5173 55.5266 85.4294 55.6047C85.3416 55.6796 85.2764 55.7675 85.2341 55.8684C85.1951 55.9693 85.1755 56.08 85.1755 56.2004C85.1755 56.3209 85.2032 56.4299 85.2585 56.5276C85.3139 56.622 85.3936 56.6969 85.4978 56.7522C85.602 56.8043 85.724 56.8303 85.864 56.8303C86.0756 56.8303 86.2595 56.788 86.4158 56.7034C86.572 56.6187 86.6925 56.5146 86.7771 56.3909C86.865 56.2672 86.9106 56.15 86.9138 56.0393L87.2849 56.635C87.2328 56.7685 87.1612 56.9068 87.0701 57.05C86.9822 57.1933 86.8699 57.3284 86.7332 57.4553C86.5964 57.579 86.432 57.6816 86.24 57.7629C86.0479 57.8411 85.8201 57.8801 85.5564 57.8801C85.2211 57.8801 84.9167 57.8134 84.6433 57.6799C84.3731 57.5432 84.1583 57.356 83.9988 57.1184C83.8425 56.8775 83.7644 56.6041 83.7644 56.2981C83.7644 56.0214 83.8165 55.7756 83.9207 55.5608C84.0248 55.3459 84.1778 55.1653 84.3796 55.0188C84.5847 54.8691 84.8403 54.7568 85.1462 54.6819C85.4522 54.6038 85.807 54.5647 86.2107 54.5647H87.0261ZM90.825 50.2825V57.7825H89.4138V50.2825H90.825Z" fill="white"/>
</svg>
