<svg width="136" height="155" viewBox="0 0 136 155" fill="none" xmlns="http://www.w3.org/2000/svg">
<circle cx="68" cy="68" r="68" fill="#C7B4FF"/>
<path d="M67.5 39C64.4783 39 61.5245 39.8952 59.0121 41.5723C56.4997 43.2494 54.5415 45.6332 53.3852 48.4222C52.2288 51.2112 51.9263 54.2801 52.5158 57.2409C53.1053 60.2016 54.5603 62.9212 56.697 65.0558C58.8336 67.1904 61.5559 68.6441 64.5195 69.233C67.4831 69.822 70.5549 69.5197 73.3466 68.3645C76.1382 67.2092 78.5243 65.2529 80.203 62.7429C81.8818 60.2329 82.7778 57.2819 82.7778 54.2632C82.7778 50.2151 81.1682 46.3329 78.303 43.4705C75.4379 40.6081 71.5519 39 67.5 39ZM67.5 63.4211C65.687 63.4211 63.9147 62.884 62.4073 61.8777C60.8998 60.8714 59.7249 59.4411 59.0311 57.7677C58.3373 56.0943 58.1558 54.253 58.5095 52.4765C58.8632 50.7001 59.7362 49.0683 61.0182 47.7875C62.3002 46.5068 63.9335 45.6346 65.7117 45.2812C67.4898 44.9279 69.3329 45.1092 71.0079 45.8024C72.6829 46.4955 74.1146 47.6693 75.1218 49.1753C76.1291 50.6813 76.6667 52.4519 76.6667 54.2632C76.6667 56.692 75.7009 59.0213 73.9818 60.7388C72.2627 62.4562 69.9312 63.4211 67.5 63.4211ZM95 97V93.9474C95 88.2801 92.7465 82.845 88.7353 78.8376C84.7241 74.8303 79.2838 72.5789 73.6111 72.5789H61.3889C55.7162 72.5789 50.2759 74.8303 46.2647 78.8376C42.2535 82.845 40 88.2801 40 93.9474V97H46.1111V93.9474C46.1111 89.8993 47.7207 86.0171 50.5859 83.1547C53.451 80.2923 57.337 78.6842 61.3889 78.6842H73.6111C77.663 78.6842 81.549 80.2923 84.4141 83.1547C87.2793 86.0171 88.8889 89.8993 88.8889 93.9474V97H95Z" fill="white"/>
</svg>
