<svg width="119" height="39" viewBox="0 0 119 39" fill="none" xmlns="http://www.w3.org/2000/svg">
<rect width="119" height="39" rx="19.5" fill="#FFA500" fill-opacity="0.1"/>
<path d="M42.0703 13.625V25H40.5547L34.8281 16.2266V25H33.3203V13.625H34.8281L40.5781 22.4219V13.625H42.0703ZM49.5547 13.625L44.8125 25.9766H43.5703L48.3203 13.625H49.5547ZM55.5625 14.6328L51.7969 25H50.2578L54.5938 13.625H55.5859L55.5625 14.6328ZM58.7188 25L54.9453 14.6328L54.9219 13.625H55.9141L60.2656 25H58.7188ZM58.5234 20.7891V22.0234H52.1328V20.7891H58.5234ZM64.9688 16.5469V17.6562H60.3984V16.5469H64.9688ZM61.9453 14.4922H63.3906V22.9062C63.3906 23.1927 63.4349 23.4089 63.5234 23.5547C63.612 23.7005 63.7266 23.7969 63.8672 23.8438C64.0078 23.8906 64.1589 23.9141 64.3203 23.9141C64.4401 23.9141 64.5651 23.9036 64.6953 23.8828C64.8307 23.8568 64.9323 23.8359 65 23.8203L65.0078 25C64.8932 25.0365 64.7422 25.0703 64.5547 25.1016C64.3724 25.138 64.151 25.1562 63.8906 25.1562C63.5365 25.1562 63.2109 25.0859 62.9141 24.9453C62.6172 24.8047 62.3802 24.5703 62.2031 24.2422C62.0312 23.9089 61.9453 23.4609 61.9453 22.8984V14.4922ZM68.2344 16.5469V25H66.7812V16.5469H68.2344ZM66.6719 14.3047C66.6719 14.0703 66.7422 13.8724 66.8828 13.7109C67.0286 13.5495 67.2422 13.4688 67.5234 13.4688C67.7995 13.4688 68.0104 13.5495 68.1562 13.7109C68.3073 13.8724 68.3828 14.0703 68.3828 14.3047C68.3828 14.5286 68.3073 14.7214 68.1562 14.8828C68.0104 15.0391 67.7995 15.1172 67.5234 15.1172C67.2422 15.1172 67.0286 15.0391 66.8828 14.8828C66.7422 14.7214 66.6719 14.5286 66.6719 14.3047ZM73.125 23.6953L75.4375 16.5469H76.9141L73.875 25H72.9062L73.125 23.6953ZM71.1953 16.5469L73.5781 23.7344L73.7422 25H72.7734L69.7109 16.5469H71.1953ZM77.7969 20.8672V20.6875C77.7969 20.0781 77.8854 19.513 78.0625 18.9922C78.2396 18.4661 78.4948 18.0104 78.8281 17.625C79.1615 17.2344 79.5651 16.9323 80.0391 16.7188C80.513 16.5 81.0443 16.3906 81.6328 16.3906C82.2266 16.3906 82.7604 16.5 83.2344 16.7188C83.7135 16.9323 84.1198 17.2344 84.4531 17.625C84.7917 18.0104 85.0495 18.4661 85.2266 18.9922C85.4036 19.513 85.4922 20.0781 85.4922 20.6875V20.8672C85.4922 21.4766 85.4036 22.0417 85.2266 22.5625C85.0495 23.0833 84.7917 23.5391 84.4531 23.9297C84.1198 24.3151 83.7161 24.6172 83.2422 24.8359C82.7734 25.0495 82.2422 25.1562 81.6484 25.1562C81.0547 25.1562 80.5208 25.0495 80.0469 24.8359C79.5729 24.6172 79.1667 24.3151 78.8281 23.9297C78.4948 23.5391 78.2396 23.0833 78.0625 22.5625C77.8854 22.0417 77.7969 21.4766 77.7969 20.8672ZM79.2422 20.6875V20.8672C79.2422 21.2891 79.2917 21.6875 79.3906 22.0625C79.4896 22.4323 79.638 22.7604 79.8359 23.0469C80.0391 23.3333 80.2917 23.5599 80.5938 23.7266C80.8958 23.888 81.2474 23.9688 81.6484 23.9688C82.0443 23.9688 82.3906 23.888 82.6875 23.7266C82.9896 23.5599 83.2396 23.3333 83.4375 23.0469C83.6354 22.7604 83.7839 22.4323 83.8828 22.0625C83.987 21.6875 84.0391 21.2891 84.0391 20.8672V20.6875C84.0391 20.2708 83.987 19.8776 83.8828 19.5078C83.7839 19.1328 83.6328 18.8021 83.4297 18.5156C83.2318 18.224 82.9818 17.9948 82.6797 17.8281C82.3828 17.6615 82.0339 17.5781 81.6328 17.5781C81.237 17.5781 80.888 17.6615 80.5859 17.8281C80.2891 17.9948 80.0391 18.224 79.8359 18.5156C79.638 18.8021 79.4896 19.1328 79.3906 19.5078C79.2917 19.8776 79.2422 20.2708 79.2422 20.6875Z" fill="#FFA500"/>
</svg>
