<svg width="127" height="39" viewBox="0 0 127 39" fill="none" xmlns="http://www.w3.org/2000/svg">
<rect width="127" height="39" rx="19.5" fill="#000AFF" fill-opacity="0.1"/>
<path d="M36.5312 14.6328L32.7656 25H31.2266L35.5625 13.625H36.5547L36.5312 14.6328ZM39.6875 25L35.9141 14.6328L35.8906 13.625H36.8828L41.2344 25H39.6875ZM39.4922 20.7891V22.0234H33.1016V20.7891H39.4922ZM45.9375 16.5469V17.6562H41.3672V16.5469H45.9375ZM42.9141 14.4922H44.3594V22.9062C44.3594 23.1927 44.4036 23.4089 44.4922 23.5547C44.5807 23.7005 44.6953 23.7969 44.8359 23.8438C44.9766 23.8906 45.1276 23.9141 45.2891 23.9141C45.4089 23.9141 45.5339 23.9036 45.6641 23.8828C45.7995 23.8568 45.901 23.8359 45.9688 23.8203L45.9766 25C45.862 25.0365 45.7109 25.0703 45.5234 25.1016C45.3411 25.138 45.1198 25.1562 44.8594 25.1562C44.5052 25.1562 44.1797 25.0859 43.8828 24.9453C43.5859 24.8047 43.349 24.5703 43.1719 24.2422C43 23.9089 42.9141 23.4609 42.9141 22.8984V14.4922ZM49.0781 17.875V25H47.6328V16.5469H49.0391L49.0781 17.875ZM51.7188 16.5L51.7109 17.8438C51.5911 17.8177 51.4766 17.8021 51.3672 17.7969C51.263 17.7865 51.1432 17.7812 51.0078 17.7812C50.6745 17.7812 50.3802 17.8333 50.125 17.9375C49.8698 18.0417 49.6536 18.1875 49.4766 18.375C49.2995 18.5625 49.1589 18.7865 49.0547 19.0469C48.9557 19.3021 48.8906 19.5833 48.8594 19.8906L48.4531 20.125C48.4531 19.6146 48.5026 19.1354 48.6016 18.6875C48.7057 18.2396 48.8646 17.8438 49.0781 17.5C49.2917 17.151 49.5625 16.8802 49.8906 16.6875C50.224 16.4896 50.6198 16.3906 51.0781 16.3906C51.1823 16.3906 51.3021 16.4036 51.4375 16.4297C51.5729 16.4505 51.6667 16.474 51.7188 16.5ZM54.625 16.5469V25H53.1719V16.5469H54.625ZM53.0625 14.3047C53.0625 14.0703 53.1328 13.8724 53.2734 13.7109C53.4193 13.5495 53.6328 13.4688 53.9141 13.4688C54.1901 13.4688 54.401 13.5495 54.5469 13.7109C54.6979 13.8724 54.7734 14.0703 54.7734 14.3047C54.7734 14.5286 54.6979 14.7214 54.5469 14.8828C54.401 15.0391 54.1901 15.1172 53.9141 15.1172C53.6328 15.1172 53.4193 15.0391 53.2734 14.8828C53.1328 14.7214 53.0625 14.5286 53.0625 14.3047ZM56.9375 13H58.3906V23.3594L58.2656 25H56.9375V13ZM64.1016 20.7031V20.8672C64.1016 21.4818 64.0286 22.0521 63.8828 22.5781C63.737 23.099 63.5234 23.5521 63.2422 23.9375C62.9609 24.3229 62.6172 24.6224 62.2109 24.8359C61.8047 25.0495 61.3385 25.1562 60.8125 25.1562C60.276 25.1562 59.8047 25.0651 59.3984 24.8828C58.9974 24.6953 58.6589 24.4271 58.3828 24.0781C58.1068 23.7292 57.8854 23.3073 57.7188 22.8125C57.5573 22.3177 57.4453 21.7604 57.3828 21.1406V20.4219C57.4453 19.7969 57.5573 19.237 57.7188 18.7422C57.8854 18.2474 58.1068 17.8255 58.3828 17.4766C58.6589 17.1224 58.9974 16.8542 59.3984 16.6719C59.7995 16.4844 60.2656 16.3906 60.7969 16.3906C61.3281 16.3906 61.7995 16.4948 62.2109 16.7031C62.6224 16.9062 62.9661 17.1979 63.2422 17.5781C63.5234 17.9583 63.737 18.4141 63.8828 18.9453C64.0286 19.4714 64.1016 20.0573 64.1016 20.7031ZM62.6484 20.8672V20.7031C62.6484 20.2812 62.6094 19.8854 62.5312 19.5156C62.4531 19.1406 62.3281 18.8125 62.1562 18.5312C61.9844 18.2448 61.7578 18.0208 61.4766 17.8594C61.1953 17.6927 60.849 17.6094 60.4375 17.6094C60.0729 17.6094 59.7552 17.6719 59.4844 17.7969C59.2188 17.9219 58.9922 18.0911 58.8047 18.3047C58.6172 18.513 58.4635 18.7526 58.3438 19.0234C58.2292 19.2891 58.1432 19.5651 58.0859 19.8516V21.7344C58.1693 22.099 58.3047 22.4505 58.4922 22.7891C58.6849 23.1224 58.9401 23.3958 59.2578 23.6094C59.5807 23.8229 59.9792 23.9297 60.4531 23.9297C60.8438 23.9297 61.1771 23.8516 61.4531 23.6953C61.7344 23.5339 61.9609 23.3125 62.1328 23.0312C62.3099 22.75 62.4401 22.4245 62.5234 22.0547C62.6068 21.6849 62.6484 21.2891 62.6484 20.8672ZM71.1016 23.0469V16.5469H72.5547V25H71.1719L71.1016 23.0469ZM71.375 21.2656L71.9766 21.25C71.9766 21.8125 71.9167 22.3333 71.7969 22.8125C71.6823 23.2865 71.4948 23.6979 71.2344 24.0469C70.974 24.3958 70.6328 24.6693 70.2109 24.8672C69.7891 25.0599 69.276 25.1562 68.6719 25.1562C68.2604 25.1562 67.8828 25.0964 67.5391 24.9766C67.2005 24.8568 66.9089 24.6719 66.6641 24.4219C66.4193 24.1719 66.2292 23.8464 66.0938 23.4453C65.9635 23.0443 65.8984 22.5625 65.8984 22V16.5469H67.3438V22.0156C67.3438 22.3958 67.3854 22.7109 67.4688 22.9609C67.5573 23.2057 67.6745 23.401 67.8203 23.5469C67.9714 23.6875 68.138 23.7865 68.3203 23.8438C68.5078 23.901 68.7005 23.9297 68.8984 23.9297C69.513 23.9297 70 23.8125 70.3594 23.5781C70.7188 23.3385 70.9766 23.0182 71.1328 22.6172C71.2943 22.2109 71.375 21.7604 71.375 21.2656ZM76.3203 16.5469V25H74.875V16.5469H76.3203ZM74.8281 15.3125L76.3438 13.0156H78.0859L75.9922 15.3125H74.8281ZM84.0547 23.3594V13H85.5078V25H84.1797L84.0547 23.3594ZM78.3672 20.8672V20.7031C78.3672 20.0573 78.4453 19.4714 78.6016 18.9453C78.763 18.4141 78.9896 17.9583 79.2812 17.5781C79.5781 17.1979 79.9297 16.9062 80.3359 16.7031C80.7474 16.4948 81.2057 16.3906 81.7109 16.3906C82.2422 16.3906 82.7057 16.4844 83.1016 16.6719C83.5026 16.8542 83.8411 17.1224 84.1172 17.4766C84.3984 17.8255 84.6198 18.2474 84.7812 18.7422C84.9427 19.237 85.0547 19.7969 85.1172 20.4219V21.1406C85.0599 21.7604 84.9479 22.3177 84.7812 22.8125C84.6198 23.3073 84.3984 23.7292 84.1172 24.0781C83.8411 24.4271 83.5026 24.6953 83.1016 24.8828C82.7005 25.0651 82.2318 25.1562 81.6953 25.1562C81.2005 25.1562 80.7474 25.0495 80.3359 24.8359C79.9297 24.6224 79.5781 24.3229 79.2812 23.9375C78.9896 23.5521 78.763 23.099 78.6016 22.5781C78.4453 22.0521 78.3672 21.4818 78.3672 20.8672ZM79.8203 20.7031V20.8672C79.8203 21.2891 79.862 21.6849 79.9453 22.0547C80.0339 22.4245 80.1693 22.75 80.3516 23.0312C80.5339 23.3125 80.7656 23.5339 81.0469 23.6953C81.3281 23.8516 81.6641 23.9297 82.0547 23.9297C82.5339 23.9297 82.9271 23.8281 83.2344 23.625C83.5469 23.4219 83.7969 23.1536 83.9844 22.8203C84.1719 22.487 84.3177 22.125 84.4219 21.7344V19.8516C84.3594 19.5651 84.2682 19.2891 84.1484 19.0234C84.0339 18.7526 83.8828 18.513 83.6953 18.3047C83.513 18.0911 83.2865 17.9219 83.0156 17.7969C82.75 17.6719 82.4349 17.6094 82.0703 17.6094C81.6745 17.6094 81.3333 17.6927 81.0469 17.8594C80.7656 18.0208 80.5339 18.2448 80.3516 18.5312C80.1693 18.8125 80.0339 19.1406 79.9453 19.5156C79.862 19.8854 79.8203 20.2812 79.8203 20.7031ZM87.375 20.8672V20.6875C87.375 20.0781 87.4635 19.513 87.6406 18.9922C87.8177 18.4661 88.0729 18.0104 88.4062 17.625C88.7396 17.2344 89.1432 16.9323 89.6172 16.7188C90.0911 16.5 90.6224 16.3906 91.2109 16.3906C91.8047 16.3906 92.3385 16.5 92.8125 16.7188C93.2917 16.9323 93.6979 17.2344 94.0312 17.625C94.3698 18.0104 94.6276 18.4661 94.8047 18.9922C94.9818 19.513 95.0703 20.0781 95.0703 20.6875V20.8672C95.0703 21.4766 94.9818 22.0417 94.8047 22.5625C94.6276 23.0833 94.3698 23.5391 94.0312 23.9297C93.6979 24.3151 93.2943 24.6172 92.8203 24.8359C92.3516 25.0495 91.8203 25.1562 91.2266 25.1562C90.6328 25.1562 90.099 25.0495 89.625 24.8359C89.151 24.6172 88.7448 24.3151 88.4062 23.9297C88.0729 23.5391 87.8177 23.0833 87.6406 22.5625C87.4635 22.0417 87.375 21.4766 87.375 20.8672ZM88.8203 20.6875V20.8672C88.8203 21.2891 88.8698 21.6875 88.9688 22.0625C89.0677 22.4323 89.2161 22.7604 89.4141 23.0469C89.6172 23.3333 89.8698 23.5599 90.1719 23.7266C90.474 23.888 90.8255 23.9688 91.2266 23.9688C91.6224 23.9688 91.9688 23.888 92.2656 23.7266C92.5677 23.5599 92.8177 23.3333 93.0156 23.0469C93.2135 22.7604 93.362 22.4323 93.4609 22.0625C93.5651 21.6875 93.6172 21.2891 93.6172 20.8672V20.6875C93.6172 20.2708 93.5651 19.8776 93.4609 19.5078C93.362 19.1328 93.2109 18.8021 93.0078 18.5156C92.8099 18.224 92.5599 17.9948 92.2578 17.8281C91.9609 17.6615 91.612 17.5781 91.2109 17.5781C90.8151 17.5781 90.4661 17.6615 90.1641 17.8281C89.8672 17.9948 89.6172 18.224 89.4141 18.5156C89.2161 18.8021 89.0677 19.1328 88.9688 19.5078C88.8698 19.8776 88.8203 20.2708 88.8203 20.6875Z" fill="#000AFF"/>
</svg>
