<svg width="58" height="58" viewBox="0 0 58 58" fill="none" xmlns="http://www.w3.org/2000/svg">
<circle cx="29" cy="29" r="29" fill="#008000"/>
<path d="M22.8359 29.7598H19.1836L19.1641 27.748H22.2305C22.7708 27.748 23.2135 27.6797 23.5586 27.543C23.9036 27.3997 24.1608 27.1947 24.3301 26.9277C24.5059 26.6543 24.5938 26.3223 24.5938 25.9316C24.5938 25.4889 24.5091 25.1309 24.3398 24.8574C24.1771 24.584 23.9199 24.3854 23.5684 24.2617C23.2233 24.138 22.7773 24.0762 22.2305 24.0762H20.1992V36H17.2695V21.7812H22.2305C23.0573 21.7812 23.7962 21.8594 24.4473 22.0156C25.1048 22.1719 25.6615 22.4095 26.1172 22.7285C26.5729 23.0475 26.9212 23.4512 27.1621 23.9395C27.403 24.4212 27.5234 24.9941 27.5234 25.6582C27.5234 26.2441 27.39 26.7845 27.123 27.2793C26.8626 27.7741 26.4492 28.1777 25.8828 28.4902C25.3229 28.8027 24.5905 28.9753 23.6855 29.0078L22.8359 29.7598ZM22.709 36H18.3828L19.5254 33.7148H22.709C23.2233 33.7148 23.6432 33.6335 23.9688 33.4707C24.2943 33.3014 24.5352 33.0736 24.6914 32.7871C24.8477 32.5007 24.9258 32.1719 24.9258 31.8008C24.9258 31.3841 24.8542 31.0228 24.7109 30.7168C24.5742 30.4108 24.3529 30.1764 24.0469 30.0137C23.7409 29.8444 23.3372 29.7598 22.8359 29.7598H20.0137L20.0332 27.748H23.5488L24.2227 28.5391C25.0885 28.526 25.7852 28.679 26.3125 28.998C26.8464 29.3105 27.2337 29.7174 27.4746 30.2188C27.722 30.7201 27.8457 31.2572 27.8457 31.8301C27.8457 32.7415 27.6471 33.5098 27.25 34.1348C26.8529 34.7533 26.2702 35.2188 25.502 35.5312C24.7402 35.8438 23.8092 36 22.709 36ZM37.4453 32.2793C37.4453 32.0254 37.4062 31.7975 37.3281 31.5957C37.2565 31.3874 37.1198 31.1986 36.918 31.0293C36.7161 30.8535 36.4329 30.681 36.0684 30.5117C35.7038 30.3424 35.2318 30.1667 34.6523 29.9844C34.0078 29.776 33.3958 29.5417 32.8164 29.2812C32.2435 29.0208 31.7357 28.7181 31.293 28.373C30.8568 28.0215 30.5117 27.6146 30.2578 27.1523C30.0104 26.6901 29.8867 26.153 29.8867 25.541C29.8867 24.9486 30.0169 24.4115 30.2773 23.9297C30.5378 23.4414 30.9023 23.0247 31.3711 22.6797C31.8398 22.3281 32.3932 22.0579 33.0312 21.8691C33.6758 21.6803 34.3822 21.5859 35.1504 21.5859C36.1986 21.5859 37.1133 21.7747 37.8945 22.1523C38.6758 22.5299 39.2812 23.0475 39.7109 23.7051C40.1471 24.3626 40.3652 25.1146 40.3652 25.9609H37.4551C37.4551 25.5443 37.3672 25.1797 37.1914 24.8672C37.0221 24.5482 36.7617 24.2975 36.4102 24.1152C36.0651 23.9329 35.6289 23.8418 35.1016 23.8418C34.5938 23.8418 34.1706 23.9199 33.832 24.0762C33.4935 24.2259 33.2396 24.431 33.0703 24.6914C32.901 24.9453 32.8164 25.2318 32.8164 25.5508C32.8164 25.7917 32.875 26.0098 32.9922 26.2051C33.1159 26.4004 33.2982 26.5827 33.5391 26.752C33.7799 26.9212 34.0762 27.0807 34.4277 27.2305C34.7793 27.3802 35.1862 27.5267 35.6484 27.6699C36.4232 27.9043 37.1035 28.168 37.6895 28.4609C38.2819 28.7539 38.7767 29.0827 39.1738 29.4473C39.571 29.8118 39.8704 30.2253 40.0723 30.6875C40.2741 31.1497 40.375 31.6738 40.375 32.2598C40.375 32.8783 40.2546 33.4316 40.0137 33.9199C39.7728 34.4082 39.4245 34.8216 38.9688 35.1602C38.513 35.4987 37.9694 35.7559 37.3379 35.9316C36.7064 36.1074 36 36.1953 35.2188 36.1953C34.5156 36.1953 33.8223 36.1042 33.1387 35.9219C32.4551 35.7331 31.8333 35.4499 31.2734 35.0723C30.7201 34.6947 30.2773 34.2129 29.9453 33.627C29.6133 33.041 29.4473 32.3477 29.4473 31.5469H32.3867C32.3867 31.9896 32.4551 32.3639 32.5918 32.6699C32.7285 32.9759 32.9206 33.2233 33.168 33.4121C33.4219 33.6009 33.7214 33.7376 34.0664 33.8223C34.418 33.9069 34.8021 33.9492 35.2188 33.9492C35.7266 33.9492 36.1432 33.8776 36.4688 33.7344C36.8008 33.5911 37.0449 33.3926 37.2012 33.1387C37.3639 32.8848 37.4453 32.5983 37.4453 32.2793Z" fill="white"/>
</svg>
