<svg width="17" height="18" viewBox="0 0 17 18" fill="none" xmlns="http://www.w3.org/2000/svg">
<path d="M8.27685 0.791067C7.41365 0.791067 6.56984 1.04704 5.85211 1.5266C5.13439 2.00617 4.57499 2.6878 4.24466 3.4853C3.91432 4.28279 3.82789 5.16033 3.99629 6.00694C4.1647 6.85356 4.58037 7.63122 5.19074 8.2416C5.80112 8.85197 6.57878 9.26764 7.4254 9.43604C8.27201 9.60445 9.14955 9.51802 9.94704 9.18768C10.7445 8.85735 11.4262 8.29795 11.9057 7.58023C12.3853 6.8625 12.6413 6.01869 12.6413 5.15549C12.6413 3.99797 12.1815 2.88786 11.363 2.06938C10.5445 1.25089 9.43437 0.791067 8.27685 0.791067ZM8.27685 7.77414C7.75893 7.77414 7.25264 7.62056 6.82201 7.33282C6.39137 7.04507 6.05573 6.6361 5.85753 6.1576C5.65933 5.6791 5.60748 5.15258 5.70852 4.64461C5.80956 4.13664 6.05896 3.67005 6.42519 3.30382C6.79141 2.9376 7.25801 2.68819 7.76598 2.58715C8.27395 2.48611 8.80047 2.53797 9.27897 2.73617C9.75746 2.93437 10.1664 3.27001 10.4542 3.70064C10.7419 4.13128 10.8955 4.63757 10.8955 5.15549C10.8955 5.85 10.6196 6.51606 10.1285 7.00715C9.63743 7.49825 8.97136 7.77414 8.27685 7.77414ZM16.1328 17.3759V16.503C16.1328 14.8825 15.4891 13.3283 14.3432 12.1824C13.1973 11.0365 11.6431 10.3928 10.0226 10.3928H6.53109C4.91056 10.3928 3.35641 11.0365 2.21053 12.1824C1.06465 13.3283 0.420898 14.8825 0.420898 16.503V17.3759H2.16667V16.503C2.16667 15.3455 2.62649 14.2354 3.44497 13.4169C4.26346 12.5984 5.37357 12.1386 6.53109 12.1386H10.0226C11.1801 12.1386 12.2902 12.5984 13.1087 13.4169C13.9272 14.2354 14.387 15.3455 14.387 16.503V17.3759H16.1328Z" fill="#2798FF"/>
</svg>
