<svg width="22" height="22" viewBox="0 0 22 22" fill="none" xmlns="http://www.w3.org/2000/svg">
<path d="M10.6044 2.68405C8.19787 2.68405 6.23999 4.64193 6.23999 7.04847V9.66712H5.36711C4.40431 9.66712 3.62134 10.4501 3.62134 11.4129V18.396C3.62134 19.3587 4.40431 20.1417 5.36711 20.1417H15.8417C16.8045 20.1417 17.5875 19.3587 17.5875 18.396V11.4129C17.5875 10.4501 16.8045 9.66712 15.8417 9.66712H14.9688V7.04847C14.9688 4.64193 13.0109 2.68405 10.6044 2.68405ZM15.8417 11.4129L15.8435 18.396H5.36711V11.4129H15.8417ZM7.98576 9.66712V7.04847C7.98576 5.60472 9.16066 4.42982 10.6044 4.42982C12.0482 4.42982 13.2231 5.60472 13.2231 7.04847V9.66712H7.98576Z" fill="#2798FF"/>
</svg>
