<svg width="119" height="39" viewBox="0 0 119 39" fill="none" xmlns="http://www.w3.org/2000/svg">
<rect width="119" height="39" rx="19.5" fill="#008000" fill-opacity="0.1"/>
<path d="M46.5312 14.6328L42.7656 25H41.2266L45.5625 13.625H46.5547L46.5312 14.6328ZM49.6875 25L45.9141 14.6328L45.8906 13.625H46.8828L51.2344 25H49.6875ZM49.4922 20.7891V22.0234H43.1016V20.7891H49.4922ZM55.9375 16.5469V17.6562H51.3672V16.5469H55.9375ZM52.9141 14.4922H54.3594V22.9062C54.3594 23.1927 54.4036 23.4089 54.4922 23.5547C54.5807 23.7005 54.6953 23.7969 54.8359 23.8438C54.9766 23.8906 55.1276 23.9141 55.2891 23.9141C55.4089 23.9141 55.5339 23.9036 55.6641 23.8828C55.7995 23.8568 55.901 23.8359 55.9688 23.8203L55.9766 25C55.862 25.0365 55.7109 25.0703 55.5234 25.1016C55.3411 25.138 55.1198 25.1562 54.8594 25.1562C54.5052 25.1562 54.1797 25.0859 53.8828 24.9453C53.5859 24.8047 53.349 24.5703 53.1719 24.2422C53 23.9089 52.9141 23.4609 52.9141 22.8984V14.4922ZM59.2031 16.5469V25H57.75V16.5469H59.2031ZM57.6406 14.3047C57.6406 14.0703 57.7109 13.8724 57.8516 13.7109C57.9974 13.5495 58.2109 13.4688 58.4922 13.4688C58.7682 13.4688 58.9792 13.5495 59.125 13.7109C59.276 13.8724 59.3516 14.0703 59.3516 14.3047C59.3516 14.5286 59.276 14.7214 59.125 14.8828C58.9792 15.0391 58.7682 15.1172 58.4922 15.1172C58.2109 15.1172 57.9974 15.0391 57.8516 14.8828C57.7109 14.7214 57.6406 14.5286 57.6406 14.3047ZM64.0938 23.6953L66.4062 16.5469H67.8828L64.8438 25H63.875L64.0938 23.6953ZM62.1641 16.5469L64.5469 23.7344L64.7109 25H63.7422L60.6797 16.5469H62.1641ZM68.7656 20.8672V20.6875C68.7656 20.0781 68.8542 19.513 69.0312 18.9922C69.2083 18.4661 69.4635 18.0104 69.7969 17.625C70.1302 17.2344 70.5339 16.9323 71.0078 16.7188C71.4818 16.5 72.013 16.3906 72.6016 16.3906C73.1953 16.3906 73.7292 16.5 74.2031 16.7188C74.6823 16.9323 75.0885 17.2344 75.4219 17.625C75.7604 18.0104 76.0182 18.4661 76.1953 18.9922C76.3724 19.513 76.4609 20.0781 76.4609 20.6875V20.8672C76.4609 21.4766 76.3724 22.0417 76.1953 22.5625C76.0182 23.0833 75.7604 23.5391 75.4219 23.9297C75.0885 24.3151 74.6849 24.6172 74.2109 24.8359C73.7422 25.0495 73.2109 25.1562 72.6172 25.1562C72.0234 25.1562 71.4896 25.0495 71.0156 24.8359C70.5417 24.6172 70.1354 24.3151 69.7969 23.9297C69.4635 23.5391 69.2083 23.0833 69.0312 22.5625C68.8542 22.0417 68.7656 21.4766 68.7656 20.8672ZM70.2109 20.6875V20.8672C70.2109 21.2891 70.2604 21.6875 70.3594 22.0625C70.4583 22.4323 70.6068 22.7604 70.8047 23.0469C71.0078 23.3333 71.2604 23.5599 71.5625 23.7266C71.8646 23.888 72.2161 23.9688 72.6172 23.9688C73.013 23.9688 73.3594 23.888 73.6562 23.7266C73.9583 23.5599 74.2083 23.3333 74.4062 23.0469C74.6042 22.7604 74.7526 22.4323 74.8516 22.0625C74.9557 21.6875 75.0078 21.2891 75.0078 20.8672V20.6875C75.0078 20.2708 74.9557 19.8776 74.8516 19.5078C74.7526 19.1328 74.6016 18.8021 74.3984 18.5156C74.2005 18.224 73.9505 17.9948 73.6484 17.8281C73.3516 17.6615 73.0026 17.5781 72.6016 17.5781C72.2057 17.5781 71.8568 17.6615 71.5547 17.8281C71.2578 17.9948 71.0078 18.224 70.8047 18.5156C70.6068 18.8021 70.4583 19.1328 70.3594 19.5078C70.2604 19.8776 70.2109 20.2708 70.2109 20.6875Z" fill="#008000"/>
</svg>
