<svg width="127" height="39" viewBox="0 0 127 39" fill="none" xmlns="http://www.w3.org/2000/svg">
<rect width="127" height="39" rx="19.5" fill="#FF0000" fill-opacity="0.1"/>
<path d="M32.0703 13.625V25H30.5547L24.8281 16.2266V25H23.3203V13.625H24.8281L30.5781 22.4219V13.625H32.0703ZM39.5547 13.625L34.8125 25.9766H33.5703L38.3203 13.625H39.5547ZM45.5625 14.6328L41.7969 25H40.2578L44.5938 13.625H45.5859L45.5625 14.6328ZM48.7188 25L44.9453 14.6328L44.9219 13.625H45.9141L50.2656 25H48.7188ZM48.5234 20.7891V22.0234H42.1328V20.7891H48.5234ZM54.9688 16.5469V17.6562H50.3984V16.5469H54.9688ZM51.9453 14.4922H53.3906V22.9062C53.3906 23.1927 53.4349 23.4089 53.5234 23.5547C53.612 23.7005 53.7266 23.7969 53.8672 23.8438C54.0078 23.8906 54.1589 23.9141 54.3203 23.9141C54.4401 23.9141 54.5651 23.9036 54.6953 23.8828C54.8307 23.8568 54.9323 23.8359 55 23.8203L55.0078 25C54.8932 25.0365 54.7422 25.0703 54.5547 25.1016C54.3724 25.138 54.151 25.1562 53.8906 25.1562C53.5365 25.1562 53.2109 25.0859 52.9141 24.9453C52.6172 24.8047 52.3802 24.5703 52.2031 24.2422C52.0312 23.9089 51.9453 23.4609 51.9453 22.8984V14.4922ZM58.1094 17.875V25H56.6641V16.5469H58.0703L58.1094 17.875ZM60.75 16.5L60.7422 17.8438C60.6224 17.8177 60.5078 17.8021 60.3984 17.7969C60.2943 17.7865 60.1745 17.7812 60.0391 17.7812C59.7057 17.7812 59.4115 17.8333 59.1562 17.9375C58.901 18.0417 58.6849 18.1875 58.5078 18.375C58.3307 18.5625 58.1901 18.7865 58.0859 19.0469C57.987 19.3021 57.9219 19.5833 57.8906 19.8906L57.4844 20.125C57.4844 19.6146 57.5339 19.1354 57.6328 18.6875C57.737 18.2396 57.8958 17.8438 58.1094 17.5C58.3229 17.151 58.5938 16.8802 58.9219 16.6875C59.2552 16.4896 59.651 16.3906 60.1094 16.3906C60.2135 16.3906 60.3333 16.4036 60.4688 16.4297C60.6042 16.4505 60.6979 16.474 60.75 16.5ZM63.6562 16.5469V25H62.2031V16.5469H63.6562ZM62.0938 14.3047C62.0938 14.0703 62.1641 13.8724 62.3047 13.7109C62.4505 13.5495 62.6641 13.4688 62.9453 13.4688C63.2214 13.4688 63.4323 13.5495 63.5781 13.7109C63.7292 13.8724 63.8047 14.0703 63.8047 14.3047C63.8047 14.5286 63.7292 14.7214 63.5781 14.8828C63.4323 15.0391 63.2214 15.1172 62.9453 15.1172C62.6641 15.1172 62.4505 15.0391 62.3047 14.8828C62.1641 14.7214 62.0938 14.5286 62.0938 14.3047ZM65.9688 13H67.4219V23.3594L67.2969 25H65.9688V13ZM73.1328 20.7031V20.8672C73.1328 21.4818 73.0599 22.0521 72.9141 22.5781C72.7682 23.099 72.5547 23.5521 72.2734 23.9375C71.9922 24.3229 71.6484 24.6224 71.2422 24.8359C70.8359 25.0495 70.3698 25.1562 69.8438 25.1562C69.3073 25.1562 68.8359 25.0651 68.4297 24.8828C68.0286 24.6953 67.6901 24.4271 67.4141 24.0781C67.138 23.7292 66.9167 23.3073 66.75 22.8125C66.5885 22.3177 66.4766 21.7604 66.4141 21.1406V20.4219C66.4766 19.7969 66.5885 19.237 66.75 18.7422C66.9167 18.2474 67.138 17.8255 67.4141 17.4766C67.6901 17.1224 68.0286 16.8542 68.4297 16.6719C68.8307 16.4844 69.2969 16.3906 69.8281 16.3906C70.3594 16.3906 70.8307 16.4948 71.2422 16.7031C71.6536 16.9062 71.9974 17.1979 72.2734 17.5781C72.5547 17.9583 72.7682 18.4141 72.9141 18.9453C73.0599 19.4714 73.1328 20.0573 73.1328 20.7031ZM71.6797 20.8672V20.7031C71.6797 20.2812 71.6406 19.8854 71.5625 19.5156C71.4844 19.1406 71.3594 18.8125 71.1875 18.5312C71.0156 18.2448 70.7891 18.0208 70.5078 17.8594C70.2266 17.6927 69.8802 17.6094 69.4688 17.6094C69.1042 17.6094 68.7865 17.6719 68.5156 17.7969C68.25 17.9219 68.0234 18.0911 67.8359 18.3047C67.6484 18.513 67.4948 18.7526 67.375 19.0234C67.2604 19.2891 67.1745 19.5651 67.1172 19.8516V21.7344C67.2005 22.099 67.3359 22.4505 67.5234 22.7891C67.7161 23.1224 67.9714 23.3958 68.2891 23.6094C68.612 23.8229 69.0104 23.9297 69.4844 23.9297C69.875 23.9297 70.2083 23.8516 70.4844 23.6953C70.7656 23.5339 70.9922 23.3125 71.1641 23.0312C71.3411 22.75 71.4714 22.4245 71.5547 22.0547C71.638 21.6849 71.6797 21.2891 71.6797 20.8672ZM80.1328 23.0469V16.5469H81.5859V25H80.2031L80.1328 23.0469ZM80.4062 21.2656L81.0078 21.25C81.0078 21.8125 80.9479 22.3333 80.8281 22.8125C80.7135 23.2865 80.526 23.6979 80.2656 24.0469C80.0052 24.3958 79.6641 24.6693 79.2422 24.8672C78.8203 25.0599 78.3073 25.1562 77.7031 25.1562C77.2917 25.1562 76.9141 25.0964 76.5703 24.9766C76.2318 24.8568 75.9401 24.6719 75.6953 24.4219C75.4505 24.1719 75.2604 23.8464 75.125 23.4453C74.9948 23.0443 74.9297 22.5625 74.9297 22V16.5469H76.375V22.0156C76.375 22.3958 76.4167 22.7109 76.5 22.9609C76.5885 23.2057 76.7057 23.401 76.8516 23.5469C77.0026 23.6875 77.1693 23.7865 77.3516 23.8438C77.5391 23.901 77.7318 23.9297 77.9297 23.9297C78.5443 23.9297 79.0312 23.8125 79.3906 23.5781C79.75 23.3385 80.0078 23.0182 80.1641 22.6172C80.3255 22.2109 80.4062 21.7604 80.4062 21.2656ZM85.3516 16.5469V25H83.9062V16.5469H85.3516ZM83.8594 15.3125L85.375 13.0156H87.1172L85.0234 15.3125H83.8594ZM93.0859 23.3594V13H94.5391V25H93.2109L93.0859 23.3594ZM87.3984 20.8672V20.7031C87.3984 20.0573 87.4766 19.4714 87.6328 18.9453C87.7943 18.4141 88.0208 17.9583 88.3125 17.5781C88.6094 17.1979 88.9609 16.9062 89.3672 16.7031C89.7786 16.4948 90.237 16.3906 90.7422 16.3906C91.2734 16.3906 91.737 16.4844 92.1328 16.6719C92.5339 16.8542 92.8724 17.1224 93.1484 17.4766C93.4297 17.8255 93.651 18.2474 93.8125 18.7422C93.974 19.237 94.0859 19.7969 94.1484 20.4219V21.1406C94.0911 21.7604 93.9792 22.3177 93.8125 22.8125C93.651 23.3073 93.4297 23.7292 93.1484 24.0781C92.8724 24.4271 92.5339 24.6953 92.1328 24.8828C91.7318 25.0651 91.263 25.1562 90.7266 25.1562C90.2318 25.1562 89.7786 25.0495 89.3672 24.8359C88.9609 24.6224 88.6094 24.3229 88.3125 23.9375C88.0208 23.5521 87.7943 23.099 87.6328 22.5781C87.4766 22.0521 87.3984 21.4818 87.3984 20.8672ZM88.8516 20.7031V20.8672C88.8516 21.2891 88.8932 21.6849 88.9766 22.0547C89.0651 22.4245 89.2005 22.75 89.3828 23.0312C89.5651 23.3125 89.7969 23.5339 90.0781 23.6953C90.3594 23.8516 90.6953 23.9297 91.0859 23.9297C91.5651 23.9297 91.9583 23.8281 92.2656 23.625C92.5781 23.4219 92.8281 23.1536 93.0156 22.8203C93.2031 22.487 93.349 22.125 93.4531 21.7344V19.8516C93.3906 19.5651 93.2995 19.2891 93.1797 19.0234C93.0651 18.7526 92.9141 18.513 92.7266 18.3047C92.5443 18.0911 92.3177 17.9219 92.0469 17.7969C91.7812 17.6719 91.4661 17.6094 91.1016 17.6094C90.7057 17.6094 90.3646 17.6927 90.0781 17.8594C89.7969 18.0208 89.5651 18.2448 89.3828 18.5312C89.2005 18.8125 89.0651 19.1406 88.9766 19.5156C88.8932 19.8854 88.8516 20.2812 88.8516 20.7031ZM96.4062 20.8672V20.6875C96.4062 20.0781 96.4948 19.513 96.6719 18.9922C96.849 18.4661 97.1042 18.0104 97.4375 17.625C97.7708 17.2344 98.1745 16.9323 98.6484 16.7188C99.1224 16.5 99.6536 16.3906 100.242 16.3906C100.836 16.3906 101.37 16.5 101.844 16.7188C102.323 16.9323 102.729 17.2344 103.062 17.625C103.401 18.0104 103.659 18.4661 103.836 18.9922C104.013 19.513 104.102 20.0781 104.102 20.6875V20.8672C104.102 21.4766 104.013 22.0417 103.836 22.5625C103.659 23.0833 103.401 23.5391 103.062 23.9297C102.729 24.3151 102.326 24.6172 101.852 24.8359C101.383 25.0495 100.852 25.1562 100.258 25.1562C99.6641 25.1562 99.1302 25.0495 98.6562 24.8359C98.1823 24.6172 97.776 24.3151 97.4375 23.9297C97.1042 23.5391 96.849 23.0833 96.6719 22.5625C96.4948 22.0417 96.4062 21.4766 96.4062 20.8672ZM97.8516 20.6875V20.8672C97.8516 21.2891 97.901 21.6875 98 22.0625C98.099 22.4323 98.2474 22.7604 98.4453 23.0469C98.6484 23.3333 98.901 23.5599 99.2031 23.7266C99.5052 23.888 99.8568 23.9688 100.258 23.9688C100.654 23.9688 101 23.888 101.297 23.7266C101.599 23.5599 101.849 23.3333 102.047 23.0469C102.245 22.7604 102.393 22.4323 102.492 22.0625C102.596 21.6875 102.648 21.2891 102.648 20.8672V20.6875C102.648 20.2708 102.596 19.8776 102.492 19.5078C102.393 19.1328 102.242 18.8021 102.039 18.5156C101.841 18.224 101.591 17.9948 101.289 17.8281C100.992 17.6615 100.643 17.5781 100.242 17.5781C99.8464 17.5781 99.4974 17.6615 99.1953 17.8281C98.8984 17.9948 98.6484 18.224 98.4453 18.5156C98.2474 18.8021 98.099 19.1328 98 19.5078C97.901 19.8776 97.8516 20.2708 97.8516 20.6875Z" fill="#FF0000"/>
</svg>
