<svg width="185" height="46" viewBox="0 0 185 46" fill="none" xmlns="http://www.w3.org/2000/svg">
<path d="M11.7175 38.1626V26.7418L17.1917 29.4733L28.8901 22.6445L35.9052 25.9896L34.7495 38.1626L23.1727 46.0008L11.7175 38.1626Z" fill="white"/>
<path d="M1.43834 20.1094L0 6.60241L13.0249 0.355957L23.7126 6.60241L17.8194 9.72564L18.3588 22.685L11.8463 26.7209L1.43834 20.1094Z" fill="white"/>
<path d="M35.0649 0L23.7125 6.45175V13.0446L36.4686 20.1012L35.9804 26.0086L46.9868 19.0125L47.821 6.45175L35.0649 0Z" fill="white"/>
<path d="M72.4609 8.85547L67.8203 23H64.082L70.4219 5.9375H72.8008L72.4609 8.85547ZM76.3164 23L71.6641 8.85547L71.2891 5.9375H73.6914L80.0664 23H76.3164ZM76.1055 16.6484V19.4023H67.0938V16.6484H76.1055ZM87.4375 10.3203V12.7109H80.0547V10.3203H87.4375ZM81.8828 7.19141H85.2578V19.1797C85.2578 19.5469 85.3047 19.8281 85.3984 20.0234C85.5 20.2188 85.6484 20.3555 85.8438 20.4336C86.0391 20.5039 86.2852 20.5391 86.582 20.5391C86.793 20.5391 86.9805 20.5312 87.1445 20.5156C87.3164 20.4922 87.4609 20.4688 87.5781 20.4453L87.5898 22.9297C87.3008 23.0234 86.9883 23.0977 86.6523 23.1523C86.3164 23.207 85.9453 23.2344 85.5391 23.2344C84.7969 23.2344 84.1484 23.1133 83.5938 22.8711C83.0469 22.6211 82.625 22.2227 82.3281 21.6758C82.0312 21.1289 81.8828 20.4102 81.8828 19.5195V7.19141ZM92.9219 5V23H89.5352V5H92.9219ZM102.555 20.1406V14.4922C102.555 14.0859 102.488 13.7383 102.355 13.4492C102.223 13.1523 102.016 12.9219 101.734 12.7578C101.461 12.5938 101.105 12.5117 100.668 12.5117C100.293 12.5117 99.9688 12.5781 99.6953 12.7109C99.4219 12.8359 99.2109 13.0195 99.0625 13.2617C98.9141 13.4961 98.8398 13.7734 98.8398 14.0938H95.4648C95.4648 13.5547 95.5898 13.043 95.8398 12.5586C96.0898 12.0742 96.4531 11.6484 96.9297 11.2812C97.4062 10.9062 97.9727 10.6133 98.6289 10.4023C99.293 10.1914 100.035 10.0859 100.855 10.0859C101.84 10.0859 102.715 10.25 103.48 10.5781C104.246 10.9062 104.848 11.3984 105.285 12.0547C105.73 12.7109 105.953 13.5312 105.953 14.5156V19.9414C105.953 20.6367 105.996 21.207 106.082 21.6523C106.168 22.0898 106.293 22.4727 106.457 22.8008V23H103.047C102.883 22.6562 102.758 22.2266 102.672 21.7109C102.594 21.1875 102.555 20.6641 102.555 20.1406ZM103 15.2773L103.023 17.1875H101.137C100.691 17.1875 100.305 17.2383 99.9766 17.3398C99.6484 17.4414 99.3789 17.5859 99.168 17.7734C98.957 17.9531 98.8008 18.1641 98.6992 18.4062C98.6055 18.6484 98.5586 18.9141 98.5586 19.2031C98.5586 19.4922 98.625 19.7539 98.7578 19.9883C98.8906 20.2148 99.082 20.3945 99.332 20.5273C99.582 20.6523 99.875 20.7148 100.211 20.7148C100.719 20.7148 101.16 20.6133 101.535 20.4102C101.91 20.207 102.199 19.957 102.402 19.6602C102.613 19.3633 102.723 19.082 102.73 18.8164L103.621 20.2461C103.496 20.5664 103.324 20.8984 103.105 21.2422C102.895 21.5859 102.625 21.9102 102.297 22.2148C101.969 22.5117 101.574 22.7578 101.113 22.9531C100.652 23.1406 100.105 23.2344 99.4727 23.2344C98.668 23.2344 97.9375 23.0742 97.2812 22.7539C96.6328 22.4258 96.1172 21.9766 95.7344 21.4062C95.3594 20.8281 95.1719 20.1719 95.1719 19.4375C95.1719 18.7734 95.2969 18.1836 95.5469 17.668C95.7969 17.1523 96.1641 16.7188 96.6484 16.3672C97.1406 16.0078 97.7539 15.7383 98.4883 15.5586C99.2227 15.3711 100.074 15.2773 101.043 15.2773H103ZM115.41 19.4961C115.41 19.2539 115.34 19.0352 115.199 18.8398C115.059 18.6445 114.797 18.4648 114.414 18.3008C114.039 18.1289 113.496 17.9727 112.785 17.832C112.145 17.6914 111.547 17.5156 110.992 17.3047C110.445 17.0859 109.969 16.8242 109.562 16.5195C109.164 16.2148 108.852 15.8555 108.625 15.4414C108.398 15.0195 108.285 14.5391 108.285 14C108.285 13.4688 108.398 12.9688 108.625 12.5C108.859 12.0312 109.191 11.6172 109.621 11.2578C110.059 10.8906 110.59 10.6055 111.215 10.4023C111.848 10.1914 112.559 10.0859 113.348 10.0859C114.449 10.0859 115.395 10.2617 116.184 10.6133C116.98 10.9648 117.59 11.4492 118.012 12.0664C118.441 12.6758 118.656 13.3711 118.656 14.1523H115.281C115.281 13.8242 115.211 13.5312 115.07 13.2734C114.938 13.0078 114.727 12.8008 114.438 12.6523C114.156 12.4961 113.789 12.418 113.336 12.418C112.961 12.418 112.637 12.4844 112.363 12.6172C112.09 12.7422 111.879 12.9141 111.73 13.1328C111.59 13.3438 111.52 13.5781 111.52 13.8359C111.52 14.0312 111.559 14.207 111.637 14.3633C111.723 14.5117 111.859 14.6484 112.047 14.7734C112.234 14.8984 112.477 15.0156 112.773 15.125C113.078 15.2266 113.453 15.3203 113.898 15.4062C114.812 15.5938 115.629 15.8398 116.348 16.1445C117.066 16.4414 117.637 16.8477 118.059 17.3633C118.48 17.8711 118.691 18.5391 118.691 19.3672C118.691 19.9297 118.566 20.4453 118.316 20.9141C118.066 21.3828 117.707 21.793 117.238 22.1445C116.77 22.4883 116.207 22.7578 115.551 22.9531C114.902 23.1406 114.172 23.2344 113.359 23.2344C112.18 23.2344 111.18 23.0234 110.359 22.6016C109.547 22.1797 108.93 21.6445 108.508 20.9961C108.094 20.3398 107.887 19.668 107.887 18.9805H111.086C111.102 19.4414 111.219 19.8125 111.438 20.0938C111.664 20.375 111.949 20.5781 112.293 20.7031C112.645 20.8281 113.023 20.8906 113.43 20.8906C113.867 20.8906 114.23 20.832 114.52 20.7148C114.809 20.5898 115.027 20.4258 115.176 20.2227C115.332 20.0117 115.41 19.7695 115.41 19.4961ZM134.617 14.082V20.8438C134.352 21.1641 133.941 21.5117 133.387 21.8867C132.832 22.2539 132.117 22.5703 131.242 22.8359C130.367 23.1016 129.309 23.2344 128.066 23.2344C126.965 23.2344 125.961 23.0547 125.055 22.6953C124.148 22.3281 123.367 21.793 122.711 21.0898C122.062 20.3867 121.562 19.5273 121.211 18.5117C120.859 17.4883 120.684 16.3203 120.684 15.0078V13.9414C120.684 12.6289 120.852 11.4609 121.188 10.4375C121.531 9.41406 122.02 8.55078 122.652 7.84766C123.285 7.14453 124.039 6.60937 124.914 6.24219C125.789 5.875 126.762 5.69141 127.832 5.69141C129.316 5.69141 130.535 5.93359 131.488 6.41797C132.441 6.89453 133.168 7.55859 133.668 8.41016C134.176 9.25391 134.488 10.2227 134.605 11.3164H131.195C131.109 10.7383 130.945 10.2344 130.703 9.80469C130.461 9.375 130.113 9.03906 129.66 8.79688C129.215 8.55469 128.637 8.43359 127.926 8.43359C127.34 8.43359 126.816 8.55469 126.355 8.79688C125.902 9.03125 125.52 9.37891 125.207 9.83984C124.895 10.3008 124.656 10.8711 124.492 11.5508C124.328 12.2305 124.246 13.0195 124.246 13.918V15.0078C124.246 15.8984 124.332 16.6875 124.504 17.375C124.676 18.0547 124.93 18.6289 125.266 19.0977C125.609 19.5586 126.031 19.9062 126.531 20.1406C127.031 20.375 127.613 20.4922 128.277 20.4922C128.832 20.4922 129.293 20.4453 129.66 20.3516C130.035 20.2578 130.336 20.1445 130.562 20.0117C130.797 19.8711 130.977 19.7383 131.102 19.6133V16.5898H127.891V14.082H134.617ZM140.617 13.0859V23H137.242V10.3203H140.418L140.617 13.0859ZM144.438 10.2383L144.379 13.3672C144.215 13.3438 144.016 13.3242 143.781 13.3086C143.555 13.2852 143.348 13.2734 143.16 13.2734C142.684 13.2734 142.27 13.3359 141.918 13.4609C141.574 13.5781 141.285 13.7539 141.051 13.9883C140.824 14.2227 140.652 14.5078 140.535 14.8438C140.426 15.1797 140.363 15.5625 140.348 15.9922L139.668 15.7812C139.668 14.9609 139.75 14.207 139.914 13.5195C140.078 12.8242 140.316 12.2188 140.629 11.7031C140.949 11.1875 141.34 10.7891 141.801 10.5078C142.262 10.2266 142.789 10.0859 143.383 10.0859C143.57 10.0859 143.762 10.1016 143.957 10.1328C144.152 10.1562 144.312 10.1914 144.438 10.2383ZM145.141 16.7891V16.543C145.141 15.6133 145.273 14.7578 145.539 13.9766C145.805 13.1875 146.191 12.5039 146.699 11.9258C147.207 11.3477 147.832 10.8984 148.574 10.5781C149.316 10.25 150.168 10.0859 151.129 10.0859C152.09 10.0859 152.945 10.25 153.695 10.5781C154.445 10.8984 155.074 11.3477 155.582 11.9258C156.098 12.5039 156.488 13.1875 156.754 13.9766C157.02 14.7578 157.152 15.6133 157.152 16.543V16.7891C157.152 17.7109 157.02 18.5664 156.754 19.3555C156.488 20.1367 156.098 20.8203 155.582 21.4062C155.074 21.9844 154.449 22.4336 153.707 22.7539C152.965 23.0742 152.113 23.2344 151.152 23.2344C150.191 23.2344 149.336 23.0742 148.586 22.7539C147.844 22.4336 147.215 21.9844 146.699 21.4062C146.191 20.8203 145.805 20.1367 145.539 19.3555C145.273 18.5664 145.141 17.7109 145.141 16.7891ZM148.516 16.543V16.7891C148.516 17.3203 148.562 17.8164 148.656 18.2773C148.75 18.7383 148.898 19.1445 149.102 19.4961C149.312 19.8398 149.586 20.1094 149.922 20.3047C150.258 20.5 150.668 20.5977 151.152 20.5977C151.621 20.5977 152.023 20.5 152.359 20.3047C152.695 20.1094 152.965 19.8398 153.168 19.4961C153.371 19.1445 153.52 18.7383 153.613 18.2773C153.715 17.8164 153.766 17.3203 153.766 16.7891V16.543C153.766 16.0273 153.715 15.543 153.613 15.0898C153.52 14.6289 153.367 14.2227 153.156 13.8711C152.953 13.5117 152.684 13.2305 152.348 13.0273C152.012 12.8242 151.605 12.7227 151.129 12.7227C150.652 12.7227 150.246 12.8242 149.91 13.0273C149.582 13.2305 149.312 13.5117 149.102 13.8711C148.898 14.2227 148.75 14.6289 148.656 15.0898C148.562 15.543 148.516 16.0273 148.516 16.543ZM166.727 19.9648V10.3203H170.102V23H166.926L166.727 19.9648ZM167.102 17.3633L168.098 17.3398C168.098 18.1836 168 18.9688 167.805 19.6953C167.609 20.4141 167.316 21.0391 166.926 21.5703C166.535 22.0938 166.043 22.5039 165.449 22.8008C164.855 23.0898 164.156 23.2344 163.352 23.2344C162.734 23.2344 162.164 23.1484 161.641 22.9766C161.125 22.7969 160.68 22.5195 160.305 22.1445C159.938 21.7617 159.648 21.2734 159.438 20.6797C159.234 20.0781 159.133 19.3555 159.133 18.5117V10.3203H162.508V18.5352C162.508 18.9102 162.551 19.2266 162.637 19.4844C162.73 19.7422 162.859 19.9531 163.023 20.1172C163.188 20.2812 163.379 20.3984 163.598 20.4688C163.824 20.5391 164.074 20.5742 164.348 20.5742C165.043 20.5742 165.59 20.4336 165.988 20.1523C166.395 19.8711 166.68 19.4883 166.844 19.0039C167.016 18.5117 167.102 17.9648 167.102 17.3633ZM176.055 12.7578V27.875H172.68V10.3203H175.809L176.055 12.7578ZM184.082 16.5195V16.7656C184.082 17.6875 183.973 18.543 183.754 19.332C183.543 20.1211 183.23 20.8086 182.816 21.3945C182.402 21.9727 181.887 22.4258 181.27 22.7539C180.66 23.0742 179.957 23.2344 179.16 23.2344C178.387 23.2344 177.715 23.0781 177.145 22.7656C176.574 22.4531 176.094 22.0156 175.703 21.4531C175.32 20.8828 175.012 20.2227 174.777 19.4727C174.543 18.7227 174.363 17.918 174.238 17.0586V16.4141C174.363 15.4922 174.543 14.6484 174.777 13.8828C175.012 13.1094 175.32 12.4414 175.703 11.8789C176.094 11.3086 176.57 10.8672 177.133 10.5547C177.703 10.2422 178.371 10.0859 179.137 10.0859C179.941 10.0859 180.648 10.2383 181.258 10.543C181.875 10.8477 182.391 11.2852 182.805 11.8555C183.227 12.4258 183.543 13.1055 183.754 13.8945C183.973 14.6836 184.082 15.5586 184.082 16.5195ZM180.695 16.7656V16.5195C180.695 15.9805 180.648 15.4844 180.555 15.0312C180.469 14.5703 180.328 14.168 180.133 13.8242C179.945 13.4805 179.695 13.2148 179.383 13.0273C179.078 12.832 178.707 12.7344 178.27 12.7344C177.809 12.7344 177.414 12.8086 177.086 12.957C176.766 13.1055 176.504 13.3203 176.301 13.6016C176.098 13.8828 175.945 14.2188 175.844 14.6094C175.742 15 175.68 15.4414 175.656 15.9336V17.5625C175.695 18.1406 175.805 18.6602 175.984 19.1211C176.164 19.5742 176.441 19.9336 176.816 20.1992C177.191 20.4648 177.684 20.5977 178.293 20.5977C178.738 20.5977 179.113 20.5 179.418 20.3047C179.723 20.1016 179.969 19.8242 180.156 19.4727C180.352 19.1211 180.488 18.7148 180.566 18.2539C180.652 17.793 180.695 17.2969 180.695 16.7656Z" fill="white"/>
<path d="M98.2031 32.4688V41H97.0723V32.4688H98.2031ZM101.18 36.0137V41H100.096V34.6602H101.121L101.18 36.0137ZM100.922 37.5898L100.471 37.5723C100.475 37.1387 100.539 36.7383 100.664 36.3711C100.789 36 100.965 35.6777 101.191 35.4043C101.418 35.1309 101.688 34.9199 102 34.7715C102.316 34.6191 102.666 34.543 103.049 34.543C103.361 34.543 103.643 34.5859 103.893 34.6719C104.143 34.7539 104.355 34.8867 104.531 35.0703C104.711 35.2539 104.848 35.4922 104.941 35.7852C105.035 36.0742 105.082 36.4277 105.082 36.8457V41H103.992V36.834C103.992 36.502 103.943 36.2363 103.846 36.0371C103.748 35.834 103.605 35.6875 103.418 35.5977C103.23 35.5039 103 35.457 102.727 35.457C102.457 35.457 102.211 35.5137 101.988 35.627C101.77 35.7402 101.58 35.8965 101.42 36.0957C101.264 36.2949 101.141 36.5234 101.051 36.7812C100.965 37.0352 100.922 37.3047 100.922 37.5898ZM110.725 39.7695V32H111.814V41H110.818L110.725 39.7695ZM106.459 37.9004V37.7773C106.459 37.293 106.518 36.8535 106.635 36.459C106.756 36.0605 106.926 35.7188 107.145 35.4336C107.367 35.1484 107.631 34.9297 107.936 34.7773C108.244 34.6211 108.588 34.543 108.967 34.543C109.365 34.543 109.713 34.6133 110.01 34.7539C110.311 34.8906 110.564 35.0918 110.771 35.3574C110.982 35.6191 111.148 35.9355 111.27 36.3066C111.391 36.6777 111.475 37.0977 111.521 37.5664V38.1055C111.479 38.5703 111.395 38.9883 111.27 39.3594C111.148 39.7305 110.982 40.0469 110.771 40.3086C110.564 40.5703 110.311 40.7715 110.01 40.9121C109.709 41.0488 109.357 41.1172 108.955 41.1172C108.584 41.1172 108.244 41.0371 107.936 40.877C107.631 40.7168 107.367 40.4922 107.145 40.2031C106.926 39.9141 106.756 39.5742 106.635 39.1836C106.518 38.7891 106.459 38.3613 106.459 37.9004ZM107.549 37.7773V37.9004C107.549 38.2168 107.58 38.5137 107.643 38.791C107.709 39.0684 107.811 39.3125 107.947 39.5234C108.084 39.7344 108.258 39.9004 108.469 40.0215C108.68 40.1387 108.932 40.1973 109.225 40.1973C109.584 40.1973 109.879 40.1211 110.109 39.9688C110.344 39.8164 110.531 39.6152 110.672 39.3652C110.812 39.1152 110.922 38.8438 111 38.5508V37.1387C110.953 36.9238 110.885 36.7168 110.795 36.5176C110.709 36.3145 110.596 36.1348 110.455 35.9785C110.318 35.8184 110.148 35.6914 109.945 35.5977C109.746 35.5039 109.51 35.457 109.236 35.457C108.939 35.457 108.684 35.5195 108.469 35.6445C108.258 35.7656 108.084 35.9336 107.947 36.1484C107.811 36.3594 107.709 36.6055 107.643 36.8867C107.58 37.1641 107.549 37.4609 107.549 37.7773ZM117.381 39.5352V34.6602H118.471V41H117.434L117.381 39.5352ZM117.586 38.1992L118.037 38.1875C118.037 38.6094 117.992 39 117.902 39.3594C117.816 39.7148 117.676 40.0234 117.48 40.2852C117.285 40.5469 117.029 40.752 116.713 40.9004C116.396 41.0449 116.012 41.1172 115.559 41.1172C115.25 41.1172 114.967 41.0723 114.709 40.9824C114.455 40.8926 114.236 40.7539 114.053 40.5664C113.869 40.3789 113.727 40.1348 113.625 39.834C113.527 39.5332 113.479 39.1719 113.479 38.75V34.6602H114.562V38.7617C114.562 39.0469 114.594 39.2832 114.656 39.4707C114.723 39.6543 114.811 39.8008 114.92 39.9102C115.033 40.0156 115.158 40.0898 115.295 40.1328C115.436 40.1758 115.58 40.1973 115.729 40.1973C116.189 40.1973 116.555 40.1094 116.824 39.9336C117.094 39.7539 117.287 39.5137 117.404 39.2129C117.525 38.9082 117.586 38.5703 117.586 38.1992ZM123.814 39.3184C123.814 39.1621 123.779 39.0176 123.709 38.8848C123.643 38.748 123.504 38.625 123.293 38.5156C123.086 38.4023 122.773 38.3047 122.355 38.2227C122.004 38.1484 121.686 38.0605 121.4 37.959C121.119 37.8574 120.879 37.7344 120.68 37.5898C120.484 37.4453 120.334 37.2754 120.229 37.0801C120.123 36.8848 120.07 36.6562 120.07 36.3945C120.07 36.1445 120.125 35.9082 120.234 35.6855C120.348 35.4629 120.506 35.2656 120.709 35.0938C120.916 34.9219 121.164 34.7871 121.453 34.6895C121.742 34.5918 122.064 34.543 122.42 34.543C122.928 34.543 123.361 34.6328 123.721 34.8125C124.08 34.9922 124.355 35.2324 124.547 35.5332C124.738 35.8301 124.834 36.1602 124.834 36.5234H123.75C123.75 36.3477 123.697 36.1777 123.592 36.0137C123.49 35.8457 123.34 35.707 123.141 35.5977C122.945 35.4883 122.705 35.4336 122.42 35.4336C122.119 35.4336 121.875 35.4805 121.688 35.5742C121.504 35.6641 121.369 35.7793 121.283 35.9199C121.201 36.0605 121.16 36.209 121.16 36.3652C121.16 36.4824 121.18 36.5879 121.219 36.6816C121.262 36.7715 121.336 36.8555 121.441 36.9336C121.547 37.0078 121.695 37.0781 121.887 37.1445C122.078 37.2109 122.322 37.2773 122.619 37.3438C123.139 37.4609 123.566 37.6016 123.902 37.7656C124.238 37.9297 124.488 38.1309 124.652 38.3691C124.816 38.6074 124.898 38.8965 124.898 39.2363C124.898 39.5137 124.84 39.7676 124.723 39.998C124.609 40.2285 124.443 40.4277 124.225 40.5957C124.01 40.7598 123.752 40.8887 123.451 40.9824C123.154 41.0723 122.82 41.1172 122.449 41.1172C121.891 41.1172 121.418 41.0176 121.031 40.8184C120.645 40.6191 120.352 40.3613 120.152 40.0449C119.953 39.7285 119.854 39.3945 119.854 39.043H120.943C120.959 39.3398 121.045 39.5762 121.201 39.752C121.357 39.9238 121.549 40.0469 121.775 40.1211C122.002 40.1914 122.227 40.2266 122.449 40.2266C122.746 40.2266 122.994 40.1875 123.193 40.1094C123.396 40.0312 123.551 39.9238 123.656 39.7871C123.762 39.6504 123.814 39.4941 123.814 39.3184ZM128.977 34.6602V35.4922H125.549V34.6602H128.977ZM126.709 33.1191H127.793V39.4297C127.793 39.6445 127.826 39.8066 127.893 39.916C127.959 40.0254 128.045 40.0977 128.15 40.1328C128.256 40.168 128.369 40.1855 128.49 40.1855C128.58 40.1855 128.674 40.1777 128.771 40.1621C128.873 40.1426 128.949 40.127 129 40.1152L129.006 41C128.92 41.0273 128.807 41.0527 128.666 41.0762C128.529 41.1035 128.363 41.1172 128.168 41.1172C127.902 41.1172 127.658 41.0645 127.436 40.959C127.213 40.8535 127.035 40.6777 126.902 40.4316C126.773 40.1816 126.709 39.8457 126.709 39.4238V33.1191ZM131.332 35.6562V41H130.248V34.6602H131.303L131.332 35.6562ZM133.312 34.625L133.307 35.6328C133.217 35.6133 133.131 35.6016 133.049 35.5977C132.971 35.5898 132.881 35.5859 132.779 35.5859C132.529 35.5859 132.309 35.625 132.117 35.7031C131.926 35.7812 131.764 35.8906 131.631 36.0312C131.498 36.1719 131.393 36.3398 131.314 36.5352C131.24 36.7266 131.191 36.9375 131.168 37.168L130.863 37.3438C130.863 36.9609 130.9 36.6016 130.975 36.2656C131.053 35.9297 131.172 35.6328 131.332 35.375C131.492 35.1133 131.695 34.9102 131.941 34.7656C132.191 34.6172 132.488 34.543 132.832 34.543C132.91 34.543 133 34.5527 133.102 34.5723C133.203 34.5879 133.273 34.6055 133.312 34.625ZM135.492 34.6602V41H134.402V34.6602H135.492ZM134.32 32.9785C134.32 32.8027 134.373 32.6543 134.479 32.5332C134.588 32.4121 134.748 32.3516 134.959 32.3516C135.166 32.3516 135.324 32.4121 135.434 32.5332C135.547 32.6543 135.604 32.8027 135.604 32.9785C135.604 33.1465 135.547 33.291 135.434 33.4121C135.324 33.5293 135.166 33.5879 134.959 33.5879C134.748 33.5879 134.588 33.5293 134.479 33.4121C134.373 33.291 134.32 33.1465 134.32 32.9785ZM140.971 39.916V36.6523C140.971 36.4023 140.92 36.1855 140.818 36.002C140.721 35.8145 140.572 35.6699 140.373 35.5684C140.174 35.4668 139.928 35.416 139.635 35.416C139.361 35.416 139.121 35.4629 138.914 35.5566C138.711 35.6504 138.551 35.7734 138.434 35.9258C138.32 36.0781 138.264 36.2422 138.264 36.418H137.18C137.18 36.1914 137.238 35.9668 137.355 35.7441C137.473 35.5215 137.641 35.3203 137.859 35.1406C138.082 34.957 138.348 34.8125 138.656 34.707C138.969 34.5977 139.316 34.543 139.699 34.543C140.16 34.543 140.566 34.6211 140.918 34.7773C141.273 34.9336 141.551 35.1699 141.75 35.4863C141.953 35.7988 142.055 36.1914 142.055 36.6641V39.6172C142.055 39.8281 142.072 40.0527 142.107 40.291C142.146 40.5293 142.203 40.7344 142.277 40.9062V41H141.146C141.092 40.875 141.049 40.709 141.018 40.502C140.986 40.291 140.971 40.0957 140.971 39.916ZM141.158 37.1562L141.17 37.918H140.074C139.766 37.918 139.49 37.9434 139.248 37.9941C139.006 38.041 138.803 38.1133 138.639 38.2109C138.475 38.3086 138.35 38.4316 138.264 38.5801C138.178 38.7246 138.135 38.8945 138.135 39.0898C138.135 39.2891 138.18 39.4707 138.27 39.6348C138.359 39.7988 138.494 39.9297 138.674 40.0273C138.857 40.1211 139.082 40.168 139.348 40.168C139.68 40.168 139.973 40.0977 140.227 39.957C140.48 39.8164 140.682 39.6445 140.83 39.4414C140.982 39.2383 141.064 39.041 141.076 38.8496L141.539 39.3711C141.512 39.5352 141.438 39.7168 141.316 39.916C141.195 40.1152 141.033 40.3066 140.83 40.4902C140.631 40.6699 140.393 40.8203 140.115 40.9414C139.842 41.0586 139.533 41.1172 139.189 41.1172C138.76 41.1172 138.383 41.0332 138.059 40.8652C137.738 40.6973 137.488 40.4727 137.309 40.1914C137.133 39.9062 137.045 39.5879 137.045 39.2363C137.045 38.8965 137.111 38.5977 137.244 38.3398C137.377 38.0781 137.568 37.8613 137.818 37.6895C138.068 37.5137 138.369 37.3809 138.721 37.291C139.072 37.2012 139.465 37.1562 139.898 37.1562H141.158Z" fill="white"/>
</svg>
