<svg width="54" height="54" viewBox="0 0 54 54" fill="none" xmlns="http://www.w3.org/2000/svg">
<rect x="0.05" y="0.05" width="53.9" height="53.9" rx="7.95" stroke="#C2C2C2" stroke-width="0.1"/>
<path d="M37.5 29.379V24C37.5 19.1745 34.2225 15.1095 29.7825 13.887C29.343 12.78 28.269 12 27 12C25.731 12 24.657 12.78 24.2175 13.887C19.7775 15.111 16.5 19.1745 16.5 24V29.379L13.9395 31.9395C13.7999 32.0786 13.6893 32.2438 13.6138 32.4259C13.5384 32.6079 13.4997 32.803 13.5 33V36C13.5 36.3978 13.658 36.7794 13.9393 37.0607C14.2206 37.342 14.6022 37.5 15 37.5H39C39.3978 37.5 39.7794 37.342 40.0607 37.0607C40.342 36.7794 40.5 36.3978 40.5 36V33C40.5003 32.803 40.4616 32.6079 40.3862 32.4259C40.3107 32.2438 40.2001 32.0786 40.0605 31.9395L37.5 29.379ZM37.5 34.5H16.5V33.621L19.0605 31.0605C19.2001 30.9214 19.3107 30.7562 19.3862 30.5741C19.4616 30.3921 19.5003 30.197 19.5 30V24C19.5 19.8645 22.8645 16.5 27 16.5C31.1355 16.5 34.5 19.8645 34.5 24V30C34.5 30.399 34.6575 30.78 34.9395 31.0605L37.5 33.621V34.5ZM27 42C27.929 42.0012 28.8352 41.7129 29.5927 41.1752C30.3503 40.6376 30.9215 39.8773 31.227 39H22.773C23.0785 39.8773 23.6497 40.6376 24.4073 41.1752C25.1648 41.7129 26.0711 42.0012 27 42Z" fill="#C2C2C2"/>
</svg>
