<svg width="17" height="18" viewBox="0 0 17 18" fill="none" xmlns="http://www.w3.org/2000/svg">
<path d="M8.27685 0.79126C7.41365 0.79126 6.56984 1.04723 5.85211 1.5268C5.13439 2.00637 4.57499 2.68799 4.24466 3.48549C3.91432 4.28298 3.82789 5.16052 3.99629 6.00713C4.1647 6.85375 4.58037 7.63141 5.19074 8.24179C5.80112 8.85216 6.57878 9.26784 7.4254 9.43624C8.27201 9.60464 9.14955 9.51821 9.94704 9.18788C10.7445 8.85754 11.4262 8.29815 11.9057 7.58042C12.3853 6.8627 12.6413 6.01888 12.6413 5.15568C12.6413 3.99816 12.1814 2.88806 11.363 2.06957C10.5445 1.25108 9.43437 0.79126 8.27685 0.79126ZM8.27685 7.77433C7.75893 7.77433 7.25264 7.62075 6.82201 7.33301C6.39137 7.04527 6.05573 6.63629 5.85753 6.15779C5.65933 5.6793 5.60748 5.15277 5.70852 4.64481C5.80956 4.13684 6.05896 3.67024 6.42519 3.30401C6.79141 2.93779 7.25801 2.68839 7.76598 2.58734C8.27395 2.4863 8.80047 2.53816 9.27897 2.73636C9.75746 2.93456 10.1664 3.2702 10.4542 3.70083C10.7419 4.13147 10.8955 4.63776 10.8955 5.15568C10.8955 5.85019 10.6196 6.51625 10.1285 7.00735C9.63743 7.49844 8.97136 7.77433 8.27685 7.77433ZM16.1328 17.3761V16.5032C16.1328 14.8826 15.4891 13.3285 14.3432 12.1826C13.1973 11.0367 11.6431 10.393 10.0226 10.393H6.53109C4.91056 10.393 3.35641 11.0367 2.21053 12.1826C1.06465 13.3285 0.420898 14.8826 0.420898 16.5032V17.3761H2.16667V16.5032C2.16667 15.3457 2.62649 14.2355 3.44497 13.4171C4.26346 12.5986 5.37357 12.1388 6.53109 12.1388H10.0226C11.1801 12.1388 12.2902 12.5986 13.1087 13.4171C13.9272 14.2355 14.387 15.3457 14.387 16.5032V17.3761H16.1328Z" fill="#6B7280"/>
</svg>
