<svg width="58" height="58" viewBox="0 0 58 58" fill="none" xmlns="http://www.w3.org/2000/svg">
<circle cx="29" cy="29" r="29" fill="#FF0099"/>
<path d="M25.5117 31.2832H28.4316C28.373 32.2402 28.1094 33.0898 27.6406 33.832C27.1784 34.5742 26.5306 35.1536 25.6973 35.5703C24.8704 35.987 23.8743 36.1953 22.709 36.1953C21.7975 36.1953 20.9805 36.0391 20.2578 35.7266C19.5352 35.4076 18.9167 34.9518 18.4023 34.3594C17.8945 33.7669 17.5072 33.0508 17.2402 32.2109C16.9733 31.3711 16.8398 30.4303 16.8398 29.3887V28.4023C16.8398 27.3607 16.9766 26.4199 17.25 25.5801C17.5299 24.7337 17.9271 24.0143 18.4414 23.4219C18.9622 22.8294 19.584 22.3737 20.3066 22.0547C21.0293 21.7357 21.8366 21.5762 22.7285 21.5762C23.9134 21.5762 24.9128 21.791 25.7266 22.2207C26.5469 22.6504 27.1816 23.2428 27.6309 23.998C28.0866 24.7533 28.36 25.6126 28.4512 26.5762H25.5215C25.4889 26.0033 25.375 25.5182 25.1797 25.1211C24.9844 24.7174 24.6882 24.4147 24.291 24.2129C23.9004 24.0046 23.3796 23.9004 22.7285 23.9004C22.2402 23.9004 21.8138 23.9915 21.4492 24.1738C21.0846 24.3561 20.7786 24.6328 20.5312 25.0039C20.2839 25.375 20.0983 25.8438 19.9746 26.4102C19.8574 26.9701 19.7988 27.6276 19.7988 28.3828V29.3887C19.7988 30.1243 19.8542 30.7721 19.9648 31.332C20.0755 31.8854 20.2448 32.3542 20.4727 32.7383C20.707 33.1159 21.0065 33.4023 21.3711 33.5977C21.7422 33.7865 22.1882 33.8809 22.709 33.8809C23.321 33.8809 23.8255 33.7832 24.2227 33.5879C24.6198 33.3926 24.9225 33.1029 25.1309 32.7188C25.3457 32.3346 25.4727 31.8561 25.5117 31.2832ZM34.7207 36H31.625L31.6445 33.7148H34.7207C35.4889 33.7148 36.1367 33.5423 36.6641 33.1973C37.1914 32.8457 37.5885 32.3346 37.8555 31.6641C38.1289 30.9935 38.2656 30.1829 38.2656 29.2324V28.5391C38.2656 27.8099 38.1875 27.1686 38.0312 26.6152C37.8815 26.0618 37.6569 25.5964 37.3574 25.2188C37.0579 24.8411 36.6901 24.5579 36.2539 24.3691C35.8177 24.1738 35.3164 24.0762 34.75 24.0762H31.5664V21.7812H34.75C35.7005 21.7812 36.5697 21.944 37.3574 22.2695C38.1517 22.5885 38.8385 23.0475 39.418 23.6465C39.9974 24.2454 40.4434 24.9616 40.7559 25.7949C41.0749 26.6217 41.2344 27.543 41.2344 28.5586V29.2324C41.2344 30.2415 41.0749 31.1628 40.7559 31.9961C40.4434 32.8294 39.9974 33.5456 39.418 34.1445C38.8451 34.737 38.1582 35.196 37.3574 35.5215C36.5632 35.8405 35.6842 36 34.7207 36ZM33.2852 21.7812V36H30.3555V21.7812H33.2852Z" fill="white"/>
</svg>
