<svg width="58" height="58" viewBox="0 0 58 58" fill="none" xmlns="http://www.w3.org/2000/svg">
<circle cx="29" cy="29" r="29" fill="#FF8A00"/>
<path d="M20.3848 21.7812V36H17.4648V21.7812H20.3848ZM30.5312 32.2793C30.5312 32.0254 30.4922 31.7975 30.4141 31.5957C30.3424 31.3874 30.2057 31.1986 30.0039 31.0293C29.8021 30.8535 29.5189 30.681 29.1543 30.5117C28.7897 30.3424 28.3177 30.1667 27.7383 29.9844C27.0938 29.776 26.4818 29.5417 25.9023 29.2812C25.3294 29.0208 24.8216 28.7181 24.3789 28.373C23.9427 28.0215 23.5977 27.6146 23.3438 27.1523C23.0964 26.6901 22.9727 26.153 22.9727 25.541C22.9727 24.9486 23.1029 24.4115 23.3633 23.9297C23.6237 23.4414 23.9883 23.0247 24.457 22.6797C24.9258 22.3281 25.4792 22.0579 26.1172 21.8691C26.7617 21.6803 27.4681 21.5859 28.2363 21.5859C29.2845 21.5859 30.1992 21.7747 30.9805 22.1523C31.7617 22.5299 32.3672 23.0475 32.7969 23.7051C33.2331 24.3626 33.4512 25.1146 33.4512 25.9609H30.541C30.541 25.5443 30.4531 25.1797 30.2773 24.8672C30.1081 24.5482 29.8477 24.2975 29.4961 24.1152C29.151 23.9329 28.7148 23.8418 28.1875 23.8418C27.6797 23.8418 27.2565 23.9199 26.918 24.0762C26.5794 24.2259 26.3255 24.431 26.1562 24.6914C25.987 24.9453 25.9023 25.2318 25.9023 25.5508C25.9023 25.7917 25.9609 26.0098 26.0781 26.2051C26.2018 26.4004 26.3841 26.5827 26.625 26.752C26.8659 26.9212 27.1621 27.0807 27.5137 27.2305C27.8652 27.3802 28.2721 27.5267 28.7344 27.6699C29.5091 27.9043 30.1895 28.168 30.7754 28.4609C31.3678 28.7539 31.8626 29.0827 32.2598 29.4473C32.6569 29.8118 32.9564 30.2253 33.1582 30.6875C33.36 31.1497 33.4609 31.6738 33.4609 32.2598C33.4609 32.8783 33.3405 33.4316 33.0996 33.9199C32.8587 34.4082 32.5104 34.8216 32.0547 35.1602C31.599 35.4987 31.0553 35.7559 30.4238 35.9316C29.7923 36.1074 29.0859 36.1953 28.3047 36.1953C27.6016 36.1953 26.9082 36.1042 26.2246 35.9219C25.541 35.7331 24.9193 35.4499 24.3594 35.0723C23.806 34.6947 23.3633 34.2129 23.0312 33.627C22.6992 33.041 22.5332 32.3477 22.5332 31.5469H25.4727C25.4727 31.9896 25.541 32.3639 25.6777 32.6699C25.8145 32.9759 26.0065 33.2233 26.2539 33.4121C26.5078 33.6009 26.8073 33.7376 27.1523 33.8223C27.5039 33.9069 27.888 33.9492 28.3047 33.9492C28.8125 33.9492 29.2292 33.8776 29.5547 33.7344C29.8867 33.5911 30.1309 33.3926 30.2871 33.1387C30.4499 32.8848 30.5312 32.5983 30.5312 32.2793Z" fill="white"/>
</svg>
