<svg width="58" height="58" viewBox="0 0 58 58" fill="none" xmlns="http://www.w3.org/2000/svg">
<circle cx="29" cy="29" r="29" fill="#0066FF"/>
<path d="M20.1992 21.7812V36H17.2695V21.7812H20.1992ZM28.7148 21.7812L23.0801 28.8027L19.8281 32.2988L19.3008 29.5254L21.498 26.5176L25.1211 21.7812H28.7148ZM25.3848 36L21.1953 29.4277L23.3633 27.6113L28.8516 36H25.3848ZM33.4121 33.7441L36.2441 21.7812H37.8262L38.1875 23.7734L35.1699 36H33.4707L33.4121 33.7441ZM31.957 21.7812L34.3008 33.7441L34.1055 36H32.2109L29.0566 21.7812H31.957ZM40.6777 33.6953L42.9922 21.7812H45.8926L42.748 36H40.8535L40.6777 33.6953ZM38.7148 21.7812L41.5664 33.793L41.4883 36H39.7891L36.752 23.7637L37.1426 21.7812H38.7148Z" fill="white"/>
</svg>
