<svg width="92" height="58" viewBox="0 0 92 58" fill="none" xmlns="http://www.w3.org/2000/svg">
<circle cx="29" cy="29" r="29" fill="#A4D3FF"/>
<path d="M74.293 26.7071L80 32.4141L85.707 26.7071L84.293 25.2931L80 29.5861L75.707 25.2931L74.293 26.7071Z" fill="black"/>
<path d="M22.3965 33.0312L25.7461 21.7812H29.0078L24.0566 36H21.9082L22.3965 33.0312ZM19.3105 21.7812L22.6504 33.0312L23.1582 36H20.9902L16.0684 21.7812H19.3105ZM35.375 24.2129L31.5078 36H28.3926L33.6758 21.7812H35.6582L35.375 24.2129ZM38.5879 36L34.7109 24.2129L34.3984 21.7812H36.4004L41.7129 36H38.5879ZM38.4121 30.707V33.002H30.9023V30.707H38.4121Z" fill="white"/>
</svg>
