<svg width="54" height="54" viewBox="0 0 54 54" fill="none" xmlns="http://www.w3.org/2000/svg">
<rect x="0.05" y="0.05" width="53.9" height="53.9" rx="7.95" stroke="#C2C2C2" stroke-width="0.1"/>
<path d="M23.875 25.75C24.9105 25.75 25.75 24.9105 25.75 23.875C25.75 22.8395 24.9105 22 23.875 22C22.8395 22 22 22.8395 22 23.875C22 24.9105 22.8395 25.75 23.875 25.75Z" fill="#C2C2C2"/>
<path d="M30.125 25.75C31.1605 25.75 32 24.9105 32 23.875C32 22.8395 31.1605 22 30.125 22C29.0895 22 28.25 22.8395 28.25 23.875C28.25 24.9105 29.0895 25.75 30.125 25.75Z" fill="#C2C2C2"/>
<path d="M27 14.5C20.1075 14.5 14.5 18.9863 14.5 24.5C14.5 28.135 16.8713 31.3937 20.75 33.1675V39.5L27.425 34.495C34.1213 34.315 39.5 29.9 39.5 24.5C39.5 18.9863 33.8925 14.5 27 14.5ZM27 32H26.5837L23.25 34.5V31.4788L22.4488 31.17C19.0888 29.8763 17 27.32 17 24.5C17 20.3637 21.4863 17 27 17C32.5137 17 37 20.3637 37 24.5C37 28.6363 32.5137 32 27 32Z" fill="#C2C2C2"/>
</svg>
